<svg aria-hidden="true" style="width:0;height:0;position:absolute;overflow:hidden" xmlns="http://www.w3.org/2000/svg"><defs><symbol id="mobile_menu" viewBox="0 0 32 32"><path d="M26.733 14H5.266c-.7 0-1.267.425-1.267.95v.1c0 .525.567.95 1.267.95h21.467c.7 0 1.267-.425 1.267-.95v-.1c0-.525-.567-.95-1.267-.95zm0 6H5.266c-.7 0-1.267.425-1.267.95v.1c0 .525.567.95 1.267.95h21.467c.7 0 1.267-.425 1.267-.95v-.1c0-.525-.567-.95-1.267-.95zm0-12H5.266c-.7 0-1.267.425-1.267.95v.1c0 .525.567.95 1.267.95h21.467c.7 0 1.267-.425 1.267-.95v-.1c0-.525-.567-.95-1.267-.95z"/></symbol><symbol id="mobile_menu_x" viewBox="0 0 32 32"><path d="M18.148 16 30.78 3.368a1.521 1.521 0 0 0-.08-2.069 1.525 1.525 0 0 0-2.068-.08L16 13.851 3.368 1.203a1.53 1.53 0 0 0-2.164 2.164l12.648 12.632L1.204 28.631a1.535 1.535 0 0 0-.532 1.099 1.522 1.522 0 0 0 .967 1.478 1.539 1.539 0 0 0 1.22-.047c.189-.092.357-.221.494-.38l12.648-12.632 12.632 12.632a1.52 1.52 0 0 0 2.068-.08 1.52 1.52 0 0 0 .08-2.069L18.149 16z"/></symbol><symbol id="dots_mob" viewBox="0 0 205 32"><path fill="#f8d24e" style="fill:var(--color2,#f8d24e)" d="M156.54 29.616c0 .982-.745 1.778-1.664 1.778s-1.664-.796-1.664-1.778.745-1.778 1.664-1.778 1.664.796 1.664 1.778zm3.606-2.371c0 .982-.745 1.778-1.664 1.778s-1.664-.796-1.664-1.778.745-1.778 1.664-1.778 1.664.796 1.664 1.778zm4.159-2.667c0 .982-.745 1.778-1.664 1.778s-1.664-.796-1.664-1.778.745-1.778 1.664-1.778 1.664.796 1.664 1.778zm3.884-2.372c0 .982-.745 1.778-1.664 1.778s-1.664-.796-1.664-1.778.745-1.778 1.664-1.778 1.664.796 1.664 1.778zm-2.22 6.225c0 .982-.745 1.778-1.664 1.778s-1.664-.796-1.664-1.778.745-1.778 1.664-1.778 1.664.796 1.664 1.778zm3.606-2.371c0 .982-.745 1.778-1.664 1.778s-1.664-.796-1.664-1.778.745-1.778 1.664-1.778 1.664.796 1.664 1.778zm4.16-2.668c0 .982-.745 1.778-1.664 1.778s-1.664-.796-1.664-1.778.745-1.778 1.664-1.778 1.664.796 1.664 1.778zm3.884-2.371c0 .982-.745 1.778-1.664 1.778s-1.664-.796-1.664-1.778.745-1.778 1.664-1.778 1.664.796 1.664 1.778zm-3.605 6.521c0 .982-.745 1.778-1.664 1.778s-1.664-.796-1.664-1.778.745-1.778 1.664-1.778 1.664.796 1.664 1.778zm3.605-2.371c0 .982-.745 1.778-1.664 1.778s-1.664-.796-1.664-1.778.745-1.778 1.664-1.778 1.664.796 1.664 1.778zm4.16-2.668c0 .982-.745 1.778-1.664 1.778s-1.664-.796-1.664-1.778.745-1.778 1.664-1.778 1.664.796 1.664 1.778zm3.883-2.371c0 .982-.745 1.778-1.664 1.778s-1.664-.796-1.664-1.778.745-1.778 1.664-1.778 1.664.796 1.664 1.778zm-3.884 6.224c0 .982-.745 1.778-1.664 1.778s-1.664-.796-1.664-1.778.745-1.778 1.664-1.778 1.664.796 1.664 1.778zm3.605-2.371c0 .982-.745 1.778-1.664 1.778s-1.664-.796-1.664-1.778.745-1.778 1.664-1.778 1.664.796 1.664 1.778zm4.16-2.667c0 .982-.745 1.778-1.664 1.778s-1.664-.796-1.664-1.778.745-1.778 1.664-1.778 1.664.796 1.664 1.778zm3.884-2.371c0 .982-.745 1.778-1.664 1.778s-1.664-.796-1.664-1.778.745-1.778 1.664-1.778 1.664.796 1.664 1.778zm-9.151 10.669c0 .982-.745 1.778-1.664 1.778s-1.664-.796-1.664-1.778.745-1.778 1.664-1.778 1.664.796 1.664 1.778zm3.606-2.371c0 .982-.745 1.778-1.664 1.778s-1.664-.796-1.664-1.778.745-1.778 1.664-1.778 1.664.796 1.664 1.778zm4.992 2.668c0 .982-.745 1.778-1.664 1.778s-1.664-.796-1.664-1.778.745-1.778 1.664-1.778 1.664.796 1.664 1.778zm-.832-5.335c0 .982-.745 1.778-1.664 1.778s-1.664-.796-1.664-1.778.745-1.778 1.664-1.778 1.664.796 1.664 1.778zm4.992 2.667c0 .982-.745 1.778-1.664 1.778s-1.664-.796-1.664-1.778.745-1.778 1.664-1.778 1.664.796 1.664 1.778zm3.884 2.668c0 .982-.745 1.778-1.664 1.778s-1.664-.796-1.664-1.778.745-1.778 1.664-1.778 1.664.796 1.664 1.778zm-4.993-7.707c0 .982-.745 1.778-1.664 1.778s-1.664-.796-1.664-1.778.745-1.778 1.664-1.778 1.664.796 1.664 1.778zm4.993 2.668c0 .982-.745 1.778-1.664 1.778s-1.664-.796-1.664-1.778.745-1.778 1.664-1.778 1.664.796 1.664 1.778zm3.883 2.668c0 .982-.745 1.778-1.664 1.778s-1.664-.796-1.664-1.778.745-1.778 1.664-1.778 1.664.796 1.664 1.778zm-65.179-17.487c0 .982-.745 1.778-1.664 1.778s-1.664-.796-1.664-1.778.745-1.778 1.664-1.778 1.664.796 1.664 1.778zm3.605-2.371c0 .982-.745 1.778-1.664 1.778s-1.664-.796-1.664-1.778.745-1.778 1.664-1.778 1.664.796 1.664 1.778zm4.161-2.668c0 .982-.745 1.778-1.664 1.778s-1.664-.796-1.664-1.778.745-1.778 1.664-1.778 1.664.796 1.664 1.778zm3.882-2.371c0 .982-.745 1.778-1.664 1.778s-1.664-.796-1.664-1.778.745-1.778 1.664-1.778 1.664.796 1.664 1.778zm-18.583 7.113c0 .982-.745 1.778-1.664 1.778s-1.664-.796-1.664-1.778.745-1.778 1.664-1.778 1.664.796 1.664 1.778zm3.606-2.371c0 .982-.745 1.778-1.664 1.778s-1.664-.796-1.664-1.778.745-1.778 1.664-1.778 1.664.796 1.664 1.778zm4.16-2.667c0 .982-.745 1.778-1.664 1.778s-1.664-.796-1.664-1.778.745-1.778 1.664-1.778 1.664.796 1.664 1.778zm3.882-2.371c0 .982-.745 1.778-1.664 1.778s-1.664-.796-1.664-1.778.745-1.778 1.664-1.778 1.664.796 1.664 1.778zm3.884 27.267c0 .982-.745 1.778-1.664 1.778s-1.664-.796-1.664-1.778.745-1.778 1.664-1.778 1.664.796 1.664 1.778zm3.605-2.371c0 .982-.745 1.778-1.664 1.778s-1.664-.796-1.664-1.778.745-1.778 1.664-1.778 1.664.796 1.664 1.778zm4.16-2.667c0 .982-.745 1.778-1.664 1.778s-1.664-.796-1.664-1.778.745-1.778 1.664-1.778 1.664.796 1.664 1.778zm3.884-2.372c0 .982-.745 1.778-1.664 1.778s-1.664-.796-1.664-1.778.745-1.778 1.664-1.778 1.664.796 1.664 1.778zm-16.087 5.632c0 .982-.745 1.778-1.664 1.778s-1.664-.796-1.664-1.778.745-1.778 1.664-1.778 1.664.796 1.664 1.778zm3.606-2.371c0 .982-.745 1.778-1.664 1.778s-1.664-.796-1.664-1.778.745-1.778 1.664-1.778 1.664.796 1.664 1.778zm4.16-2.667c0 .982-.745 1.778-1.664 1.778s-1.664-.796-1.664-1.778.745-1.778 1.664-1.778 1.664.796 1.664 1.778zm3.883-2.371c0 .982-.745 1.778-1.664 1.778s-1.664-.796-1.664-1.778.745-1.778 1.664-1.778 1.664.796 1.664 1.778zm-9.984 1.185c0 .982-.745 1.778-1.664 1.778s-1.664-.796-1.664-1.778.745-1.778 1.664-1.778 1.664.796 1.664 1.778zm3.605-2.371c0 .982-.745 1.778-1.664 1.778s-1.664-.796-1.664-1.778.745-1.778 1.664-1.778 1.664.796 1.664 1.778zm4.161-2.668c0 .982-.745 1.778-1.664 1.778s-1.664-.796-1.664-1.778.745-1.778 1.664-1.778 1.664.796 1.664 1.778zm3.883-2.371c0 .982-.745 1.778-1.664 1.778s-1.664-.796-1.664-1.778.745-1.778 1.664-1.778 1.664.796 1.664 1.778zm-11.649-2.964c0 .982-.745 1.778-1.664 1.778s-1.664-.796-1.664-1.778.745-1.778 1.664-1.778 1.664.796 1.664 1.778zm3.605-2.371c0 .982-.745 1.778-1.664 1.778s-1.664-.796-1.664-1.778.745-1.778 1.664-1.778 1.664.796 1.664 1.778zm4.161-2.667c0 .982-.745 1.778-1.664 1.778s-1.664-.796-1.664-1.778.745-1.778 1.664-1.778 1.664.796 1.664 1.778zm3.883-2.371c0 .982-.745 1.778-1.664 1.778s-1.664-.796-1.664-1.778.745-1.778 1.664-1.778 1.664.796 1.664 1.778zm-12.482 13.041c0 .982-.745 1.778-1.664 1.778s-1.664-.796-1.664-1.778.745-1.778 1.664-1.778 1.664.796 1.664 1.778zm3.607-2.371c0 .982-.745 1.778-1.664 1.778s-1.664-.796-1.664-1.778.745-1.778 1.664-1.778 1.664.796 1.664 1.778zm4.159-2.668c0 .982-.745 1.778-1.664 1.778s-1.664-.796-1.664-1.778.745-1.778 1.664-1.778 1.664.796 1.664 1.778zm3.883-2.371c0 .982-.745 1.778-1.664 1.778s-1.664-.796-1.664-1.778.745-1.778 1.664-1.778 1.664.796 1.664 1.778zM127.14 8.276c0 .982-.745 1.778-1.664 1.778s-1.664-.796-1.664-1.778.745-1.778 1.664-1.778 1.664.796 1.664 1.778zm3.606-2.371c0 .982-.745 1.778-1.664 1.778s-1.664-.796-1.664-1.778.745-1.778 1.664-1.778 1.664.796 1.664 1.778zm4.16-2.667c0 .982-.745 1.778-1.664 1.778s-1.664-.796-1.664-1.778.745-1.778 1.664-1.778 1.664.796 1.664 1.778z"/><path fill="#f8d24e" style="fill:var(--color2,#f8d24e)" d="M132.964 10.055c.919 0 1.665-.796 1.665-1.778s-.746-1.778-1.665-1.778-1.664.796-1.664 1.778.745 1.778 1.664 1.778zm-76.523 11.42c.141.985-.491 1.906-1.413 2.057s-1.784-.525-1.925-1.51c-.141-.985.491-1.906 1.413-2.057s1.784.525 1.925 1.51zm3.276-2.971c.141.985-.491 1.906-1.413 2.057s-1.784-.525-1.925-1.51c-.141-.985.491-1.906 1.413-2.057s1.784.525 1.925 1.51zm3.789-3.36c.141.985-.491 1.906-1.413 2.057s-1.784-.525-1.925-1.51c-.141-.985.491-1.906 1.413-2.057s1.784.525 1.925 1.51zm3.554-3.016c.141.985-.491 1.906-1.413 2.057s-1.784-.525-1.925-1.51c-.141-.985.491-1.906 1.413-2.057s1.784.525 1.925 1.51zM3.481 21.473c0 .997-.779 1.805-1.741 1.805s-1.741-.808-1.741-1.805c0-.997.779-1.805 1.741-1.805s1.741.808 1.741 1.805zm3.771-2.406c0 .997-.779 1.805-1.741 1.805s-1.741-.808-1.741-1.805c0-.997.779-1.805 1.741-1.805s1.741.808 1.741 1.805zm4.353-2.707c0 .997-.779 1.805-1.741 1.805s-1.741-.808-1.741-1.805c0-.997.779-1.805 1.741-1.805s1.741.808 1.741 1.805zm4.061-2.407c0 .997-.779 1.805-1.741 1.805s-1.741-.808-1.741-1.805c0-.997.779-1.805 1.741-1.805s1.741.808 1.741 1.805zM5.223 25.984c0 .997-.779 1.805-1.741 1.805s-1.741-.808-1.741-1.805c0-.997.779-1.805 1.741-1.805s1.741.808 1.741 1.805zm3.771-2.406c0 .997-.779 1.805-1.741 1.805s-1.741-.808-1.741-1.805c0-.997.779-1.805 1.741-1.805s1.741.808 1.741 1.805zm4.352-2.707c0 .997-.779 1.805-1.741 1.805s-1.741-.808-1.741-1.805c0-.997.779-1.805 1.741-1.805s1.741.808 1.741 1.805zm4.061-2.406c0 .997-.779 1.805-1.741 1.805s-1.741-.808-1.741-1.805c0-.997.779-1.805 1.741-1.805s1.741.808 1.741 1.805zM9.573 28.39c0 .997-.779 1.805-1.741 1.805s-1.741-.808-1.741-1.805c0-.997.779-1.805 1.741-1.805s1.741.808 1.741 1.805zm3.772-2.406c0 .997-.779 1.805-1.741 1.805s-1.741-.808-1.741-1.805c0-.997.779-1.805 1.741-1.805s1.741.808 1.741 1.805zm4.351-2.707c0 .997-.779 1.805-1.741 1.805s-1.741-.808-1.741-1.805c0-.997.779-1.805 1.741-1.805s1.741.808 1.741 1.805zm4.062-2.406c0 .997-.779 1.805-1.741 1.805s-1.741-.808-1.741-1.805c0-.997.779-1.805 1.741-1.805s1.741.808 1.741 1.805zm-7.254 9.024c0 .997-.779 1.805-1.741 1.805s-1.741-.808-1.741-1.805c0-.997.779-1.805 1.741-1.805s1.741.808 1.741 1.805zm3.772-2.407c0 .997-.779 1.805-1.741 1.805s-1.741-.808-1.741-1.805c0-.997.779-1.805 1.741-1.805s1.741.808 1.741 1.805zm4.353-2.707c0 .997-.779 1.805-1.741 1.805s-1.741-.808-1.741-1.805c0-.997.779-1.805 1.741-1.805s1.741.808 1.741 1.805zm4.06-2.406c0 .997-.779 1.805-1.741 1.805s-1.741-.808-1.741-1.805c0-.997.779-1.805 1.741-1.805s1.741.808 1.741 1.805z"/><path fill="#f8d24e" style="fill:var(--color2,#f8d24e)" d="M20.888 30.196c0 .997-.779 1.805-1.741 1.805s-1.741-.808-1.741-1.805c0-.997.779-1.805 1.741-1.805s1.741.808 1.741 1.805zm3.771-2.407c0 .997-.779 1.805-1.741 1.805s-1.741-.808-1.741-1.805c0-.997.779-1.805 1.741-1.805s1.741.808 1.741 1.805zm4.352-2.707c0 .997-.779 1.805-1.741 1.805s-1.741-.808-1.741-1.805c0-.997.779-1.805 1.741-1.805s1.741.808 1.741 1.805zm4.061-2.406c0 .997-.779 1.805-1.741 1.805s-1.741-.808-1.741-1.805c0-.997.779-1.805 1.741-1.805s1.741.808 1.741 1.805zm-4.641 7.519c0 .997-.779 1.805-1.741 1.805s-1.741-.808-1.741-1.805c0-.997.779-1.805 1.741-1.805s1.741.808 1.741 1.805zm3.771-2.406c0 .997-.779 1.805-1.741 1.805s-1.741-.808-1.741-1.805c0-.997.779-1.805 1.741-1.805s1.741.808 1.741 1.805zm4.352-2.707c0 .997-.779 1.805-1.741 1.805s-1.741-.808-1.741-1.805c0-.997.779-1.805 1.741-1.805s1.741.808 1.741 1.805zm4.062-2.406c0 .997-.779 1.805-1.741 1.805s-1.741-.808-1.741-1.805c0-.997.779-1.805 1.741-1.805s1.741.808 1.741 1.805z"/><path fill="#f8d24e" style="fill:var(--color2,#f8d24e)" d="M34.812 29.895c0 .997-.779 1.805-1.741 1.805s-1.741-.808-1.741-1.805c0-.997.779-1.805 1.741-1.805s1.741.808 1.741 1.805zm3.771-2.407c0 .997-.779 1.805-1.741 1.805s-1.741-.808-1.741-1.805c0-.997.779-1.805 1.741-1.805s1.741.808 1.741 1.805zm4.353-2.707c0 .997-.779 1.805-1.741 1.805s-1.741-.808-1.741-1.805c0-.997.779-1.805 1.741-1.805s1.741.808 1.741 1.805zm4.06-2.406c0 .997-.779 1.805-1.741 1.805s-1.741-.808-1.741-1.805c0-.997.779-1.805 1.741-1.805s1.741.808 1.741 1.805zm-4.932 7.219c0 .997-.779 1.805-1.741 1.805s-1.741-.808-1.741-1.805c0-.997.779-1.805 1.741-1.805s1.741.808 1.741 1.805zm3.772-2.407c0 .997-.779 1.805-1.741 1.805s-1.741-.808-1.741-1.805c0-.997.779-1.805 1.741-1.805s1.741.808 1.741 1.805zm4.352-2.706c0 .997-.779 1.805-1.741 1.805s-1.741-.808-1.741-1.805c0-.997.779-1.805 1.741-1.805s1.741.808 1.741 1.805zm4.061-2.407c0 .997-.779 1.805-1.741 1.805s-1.741-.808-1.741-1.805c0-.997.779-1.805 1.741-1.805s1.741.808 1.741 1.805z"/><path fill="#f8d24e" style="fill:var(--color2,#f8d24e)" d="M48.737 21.773c0 .997-.779 1.805-1.741 1.805s-1.741-.808-1.741-1.805c0-.997.779-1.805 1.741-1.805s1.741.808 1.741 1.805zm3.771-2.406c0 .997-.779 1.805-1.741 1.805s-1.741-.808-1.741-1.805c0-.997.779-1.805 1.741-1.805s1.741.808 1.741 1.805zm4.352-2.707c0 .997-.779 1.805-1.741 1.805s-1.741-.808-1.741-1.805c0-.997.779-1.805 1.741-1.805s1.741.808 1.741 1.805zm4.061-2.406c0 .997-.779 1.805-1.741 1.805s-1.741-.808-1.741-1.805c0-.997.779-1.805 1.741-1.805s1.741.808 1.741 1.805z"/></symbol><symbol id="dots_tab" viewBox="0 0 356 32"><path fill="#f8d24e" style="fill:var(--color2,#f8d24e)" d="M306.022 29.57c0 1.021-.832 1.849-1.858 1.849s-1.858-.828-1.858-1.849.832-1.849 1.858-1.849 1.858.828 1.858 1.849zm3.715-2.311c0 1.021-.832 1.849-1.858 1.849s-1.858-.828-1.858-1.849.832-1.849 1.858-1.849 1.858.828 1.858 1.849zm4.643-2.775c0 1.021-.832 1.849-1.858 1.849s-1.858-.828-1.858-1.849.832-1.849 1.858-1.849 1.858.828 1.858 1.849zm3.715-2.311c0 1.021-.832 1.849-1.858 1.849s-1.858-.828-1.858-1.849.832-1.849 1.858-1.849 1.858.828 1.858 1.849zm-2.322 6.473c0 1.021-.832 1.849-1.858 1.849s-1.858-.828-1.858-1.849.832-1.849 1.858-1.849 1.858.828 1.858 1.849zm3.716-2.312c0 1.021-.832 1.849-1.858 1.849s-1.858-.828-1.858-1.849.832-1.849 1.858-1.849 1.858.828 1.858 1.849zm4.643-2.774c0 1.021-.832 1.849-1.858 1.849s-1.858-.828-1.858-1.849.832-1.849 1.858-1.849 1.858.828 1.858 1.849zm3.715-2.312c0 1.021-.832 1.849-1.858 1.849s-1.858-.828-1.858-1.849.832-1.849 1.858-1.849 1.858.828 1.858 1.849zm-3.715 6.473c0 1.021-.832 1.849-1.858 1.849s-1.858-.828-1.858-1.849.832-1.849 1.858-1.849 1.858.828 1.858 1.849zm3.715-2.312c0 1.021-.832 1.849-1.858 1.849s-1.858-.828-1.858-1.849.832-1.849 1.858-1.849 1.858.828 1.858 1.849zm4.644-2.774c0 1.021-.832 1.849-1.858 1.849s-1.858-.828-1.858-1.849.832-1.849 1.858-1.849 1.858.828 1.858 1.849zm3.715-2.312c0 1.021-.832 1.849-1.858 1.849s-1.858-.828-1.858-1.849.832-1.849 1.858-1.849 1.858.828 1.858 1.849zm-3.715 6.011c0 1.021-.832 1.849-1.858 1.849s-1.858-.828-1.858-1.849.832-1.849 1.858-1.849 1.858.828 1.858 1.849zm3.715-2.312c0 1.021-.832 1.849-1.858 1.849s-1.858-.828-1.858-1.849.832-1.849 1.858-1.849 1.858.828 1.858 1.849zm4.644-2.774c0 1.021-.832 1.849-1.858 1.849s-1.858-.828-1.858-1.849.832-1.849 1.858-1.849 1.858.828 1.858 1.849zm3.715-2.312c0 1.021-.832 1.849-1.858 1.849s-1.858-.828-1.858-1.849.832-1.849 1.858-1.849 1.858.828 1.858 1.849zm-9.752 10.634c0 1.021-.832 1.849-1.858 1.849s-1.858-.828-1.858-1.849.832-1.849 1.858-1.849 1.858.828 1.858 1.849zm3.715-2.311c0 1.021-.832 1.849-1.858 1.849s-1.858-.828-1.858-1.849.832-1.849 1.858-1.849 1.858.828 1.858 1.849zm5.108 2.774c0 1.021-.832 1.849-1.858 1.849s-1.858-.828-1.858-1.849.832-1.849 1.858-1.849 1.858.828 1.858 1.849zm-.465-5.549c0 1.021-.832 1.849-1.858 1.849s-1.858-.828-1.858-1.849.832-1.849 1.858-1.849 1.858.828 1.858 1.849zm5.108 2.775c0 1.021-.832 1.849-1.858 1.849s-1.858-.828-1.858-1.849.832-1.849 1.858-1.849 1.858.828 1.858 1.849zm4.18 2.774c0 1.021-.832 1.849-1.858 1.849s-1.858-.828-1.858-1.849.832-1.849 1.858-1.849 1.858.828 1.858 1.849zm-5.572-7.86c0 1.021-.832 1.849-1.858 1.849s-1.858-.828-1.858-1.849.832-1.849 1.858-1.849 1.858.828 1.858 1.849zm5.572 2.774c0 1.021-.832 1.849-1.858 1.849s-1.858-.828-1.858-1.849.832-1.849 1.858-1.849 1.858.828 1.858 1.849zm3.715 2.774c0 1.021-.832 1.849-1.858 1.849s-1.858-.828-1.858-1.849.832-1.849 1.858-1.849 1.858.828 1.858 1.849zm-67.798-17.57c0 1.021-.832 1.849-1.858 1.849s-1.858-.828-1.858-1.849.832-1.849 1.858-1.849 1.858.828 1.858 1.849zm3.715-2.312c0 1.021-.832 1.849-1.858 1.849s-1.858-.828-1.858-1.849.832-1.849 1.858-1.849 1.858.828 1.858 1.849zm4.643-2.774c0 1.021-.832 1.849-1.858 1.849s-1.858-.828-1.858-1.849.832-1.849 1.858-1.849 1.858.828 1.858 1.849zm3.715-2.312c0 1.021-.832 1.849-1.858 1.849s-1.858-.828-1.858-1.849.832-1.849 1.858-1.849 1.858.828 1.858 1.849zm-19.503 6.936c0 1.021-.832 1.849-1.858 1.849s-1.858-.828-1.858-1.849.832-1.849 1.858-1.849 1.858.828 1.858 1.849zm3.715-2.312c0 1.021-.832 1.849-1.858 1.849s-1.858-.828-1.858-1.849.832-1.849 1.858-1.849 1.858.828 1.858 1.849zm4.643-2.774c0 1.021-.832 1.849-1.858 1.849s-1.858-.828-1.858-1.849.832-1.849 1.858-1.849 1.858.828 1.858 1.849zm3.715-2.312c0 1.021-.832 1.849-1.858 1.849s-1.858-.828-1.858-1.849.832-1.849 1.858-1.849 1.858.828 1.858 1.849zm4.179 27.279c0 1.021-.832 1.849-1.858 1.849s-1.858-.828-1.858-1.849.832-1.849 1.858-1.849 1.858.828 1.858 1.849zm3.716-2.311c0 1.021-.832 1.849-1.858 1.849s-1.858-.828-1.858-1.849.832-1.849 1.858-1.849 1.858.828 1.858 1.849zm4.643-2.775c0 1.021-.832 1.849-1.858 1.849s-1.858-.828-1.858-1.849.832-1.849 1.858-1.849 1.858.828 1.858 1.849zm3.715-2.311c0 1.021-.832 1.849-1.858 1.849s-1.858-.828-1.858-1.849.832-1.849 1.858-1.849 1.858.828 1.858 1.849zm-16.717 6.01c0 1.021-.832 1.849-1.858 1.849s-1.858-.828-1.858-1.849.832-1.849 1.858-1.849 1.858.828 1.858 1.849z"/><path fill="#f8d24e" style="fill:var(--color2,#f8d24e)" d="M296.27 25.872c0 1.021-.832 1.849-1.858 1.849s-1.858-.828-1.858-1.849.832-1.849 1.858-1.849 1.858.828 1.858 1.849zm4.644-2.775c0 1.021-.832 1.849-1.858 1.849s-1.858-.828-1.858-1.849.832-1.849 1.858-1.849 1.858.828 1.858 1.849zm3.714-2.312c0 1.021-.832 1.849-1.858 1.849s-1.858-.828-1.858-1.849.832-1.849 1.858-1.849 1.858.828 1.858 1.849zm-10.215.925c0 1.021-.832 1.849-1.858 1.849s-1.858-.828-1.858-1.849.832-1.849 1.858-1.849 1.858.828 1.858 1.849zm3.714-2.312c0 1.021-.832 1.849-1.858 1.849s-1.858-.828-1.858-1.849.832-1.849 1.858-1.849 1.858.828 1.858 1.849zm4.644-2.774c0 1.021-.832 1.849-1.858 1.849s-1.858-.828-1.858-1.849.832-1.849 1.858-1.849 1.858.828 1.858 1.849zm3.715-2.312c0 1.021-.832 1.849-1.858 1.849s-1.858-.828-1.858-1.849.832-1.849 1.858-1.849 1.858.828 1.858 1.849zm-12.073-3.236c0 1.021-.832 1.849-1.858 1.849s-1.858-.828-1.858-1.849.832-1.849 1.858-1.849 1.858.828 1.858 1.849zm3.714-2.312c0 1.021-.832 1.849-1.858 1.849s-1.858-.828-1.858-1.849.832-1.849 1.858-1.849 1.858.828 1.858 1.849zm4.644-2.774c0 1.021-.832 1.849-1.858 1.849s-1.858-.828-1.858-1.849.832-1.849 1.858-1.849 1.858.828 1.858 1.849zm3.715-2.312c0 1.021-.832 1.849-1.858 1.849s-1.858-.828-1.858-1.849.832-1.849 1.858-1.849 1.858.828 1.858 1.849zm-13.002 13.409c0 1.021-.832 1.849-1.858 1.849s-1.858-.828-1.858-1.849.832-1.849 1.858-1.849 1.858.828 1.858 1.849zm3.714-2.312c0 1.021-.832 1.849-1.858 1.849s-1.858-.828-1.858-1.849.832-1.849 1.858-1.849 1.858.828 1.858 1.849zm4.644-2.774c0 1.021-.832 1.849-1.858 1.849s-1.858-.828-1.858-1.849.832-1.849 1.858-1.849 1.858.828 1.858 1.849zm3.715-2.312c0 1.021-.832 1.849-1.858 1.849s-1.858-.828-1.858-1.849.832-1.849 1.858-1.849 1.858.828 1.858 1.849zm-30.648-1.387c0 1.021-.728 1.849-1.625 1.849s-1.625-.828-1.625-1.849.728-1.849 1.625-1.849 1.625.828 1.625 1.849zm3.715-2.312c0 1.021-.728 1.849-1.625 1.849s-1.625-.828-1.625-1.849.728-1.849 1.625-1.849 1.625.828 1.625 1.849zm4.643-2.774c0 1.021-.728 1.849-1.625 1.849s-1.625-.828-1.625-1.849.728-1.849 1.625-1.849 1.625.828 1.625 1.849zm-2.089 6.935c.898 0 1.625-.828 1.625-1.849s-.728-1.849-1.625-1.849-1.625.828-1.625 1.849.728 1.849 1.625 1.849zM3.715 27.362a1.856 1.856 0 1 1-3.712-.002 1.856 1.856 0 0 1 3.712.002zm3.715-2.319a1.856 1.856 0 1 1-3.712-.002 1.856 1.856 0 0 1 3.712.002zm4.644-2.782a1.856 1.856 0 1 1-3.712-.002 1.856 1.856 0 0 1 3.712.002zm3.715-2.319a1.856 1.856 0 1 1-3.712-.002 1.856 1.856 0 0 1 3.712.002zm10.216 8.348c0 1.025-.832 1.855-1.858 1.855s-1.858-.831-1.858-1.855c0-1.025.832-1.855 1.858-1.855s1.858.831 1.858 1.855zm3.715-2.319c0 1.025-.832 1.855-1.858 1.855s-1.858-.831-1.858-1.855c0-1.025.832-1.855 1.858-1.855s1.858.831 1.858 1.855zm4.644-2.783c0 1.025-.832 1.855-1.858 1.855s-1.858-.831-1.858-1.855c0-1.025.832-1.855 1.858-1.855s1.858.831 1.858 1.855zm3.715-2.318c0 1.025-.832 1.855-1.858 1.855s-1.858-.831-1.858-1.855c0-1.025.832-1.855 1.858-1.855s1.858.831 1.858 1.855zm-3.715 6.029c0 1.025-.728 1.855-1.625 1.855s-1.625-.831-1.625-1.855c0-1.025.728-1.855 1.625-1.855s1.625.831 1.625 1.855z"/><path fill="#f8d24e" style="fill:var(--color2,#f8d24e)" d="M38.078 24.58c0 1.025-.728 1.855-1.625 1.855s-1.625-.831-1.625-1.855c0-1.025.728-1.855 1.625-1.855s1.625.831 1.625 1.855zm4.18-2.319c0 1.025-.728 1.855-1.625 1.855s-1.625-.831-1.625-1.855c0-1.025.728-1.855 1.625-1.855s1.625.831 1.625 1.855zm4.179-2.319c0 1.025-.728 1.855-1.625 1.855s-1.625-.831-1.625-1.855c0-1.025.728-1.855 1.625-1.855s1.625.831 1.625 1.855zm4.644-3.71c0 1.025-.728 1.855-1.625 1.855s-1.625-.831-1.625-1.855c0-1.025.728-1.855 1.625-1.855s1.625.831 1.625 1.855zm-9.752 1.855c0 1.025-.728 1.855-1.625 1.855s-1.625-.831-1.625-1.855c0-1.025.728-1.855 1.625-1.855s1.625.831 1.625 1.855zM17.646 28.29a1.856 1.856 0 1 1-3.712-.002 1.856 1.856 0 0 1 3.712.002zm3.715-2.319a1.858 1.858 0 0 1-3.715 0c0-1.025.832-1.855 1.858-1.855s1.858.831 1.858 1.855zm4.644-2.783c0 1.025-.832 1.855-1.858 1.855s-1.858-.831-1.858-1.855c0-1.025.832-1.855 1.858-1.855s1.858.831 1.858 1.855zm3.715-2.318c0 1.025-.832 1.855-1.858 1.855s-1.858-.831-1.858-1.855c0-1.025.832-1.855 1.858-1.855s1.858.831 1.858 1.855zm-19.504 6.956a1.856 1.856 0 1 1-3.712-.002 1.856 1.856 0 0 1 3.712.002zm3.715-2.319a1.856 1.856 0 1 1-3.712-.002 1.856 1.856 0 0 1 3.712.002zm4.644-2.782a1.856 1.856 0 0 1-1.858 1.855 1.856 1.856 0 1 1 0-3.71c1.025 0 1.858.831 1.858 1.855zm3.715-2.319c0 1.025-.832 1.855-1.858 1.855s-1.858-.831-1.858-1.855c0-1.025.832-1.855 1.858-1.855s1.858.831 1.858 1.855z"/></symbol><symbol id="dots_desk_nonWorking" viewBox="0 0 100 32"><path fill="#f8d24e" style="fill:var(--color2,#f8d24e)" d="M45.81 25.797c0 .287-.219.52-.488.52s-.488-.233-.488-.52c0-.287.219-.52.488-.52s.488.233.488.52zm1.139-.693c0 .287-.219.52-.488.52s-.488-.233-.488-.52c0-.287.219-.52.488-.52s.488.233.488.52zm-2.034 2.601c0 .287-.219.52-.488.52s-.488-.233-.488-.52c0-.287.219-.52.488-.52s.488.233.488.52zm1.057-.694c0 .287-.219.52-.488.52s-.488-.233-.488-.52c0-.287.219-.52.488-.52s.488.233.488.52zm1.221-.78c0 .287-.219.52-.488.52s-.488-.233-.488-.52c0-.287.219-.52.488-.52s.488.233.488.52zm1.139-.694c0 .287-.219.52-.488.52s-.488-.233-.488-.52c0-.287.219-.52.488-.52s.488.233.488.52z"/><path fill="#f8d24e" style="fill:var(--color2,#f8d24e)" d="M46.705 27.792c0 .287-.219.52-.488.52s-.488-.233-.488-.52c0-.287.219-.52.488-.52s.488.233.488.52zm1.057-.694c0 .287-.219.52-.488.52s-.488-.233-.488-.52c0-.287.219-.52.488-.52s.488.233.488.52zm1.221-.78c0 .287-.219.52-.488.52s-.488-.233-.488-.52c0-.287.219-.52.488-.52s.488.233.488.52zm1.139-.694c0 .287-.219.52-.488.52s-.488-.233-.488-.52c0-.287.219-.52.488-.52s.488.233.488.52zm-1.302 2.168c0 .287-.219.52-.488.52s-.488-.233-.488-.52c0-.287.219-.52.488-.52s.488.233.488.52zm1.058-.694c0 .287-.219.52-.488.52s-.488-.233-.488-.52c0-.287.219-.52.488-.52s.488.233.488.52zm1.22-.78c0 .287-.219.52-.488.52s-.488-.233-.488-.52c0-.287.219-.52.488-.52s.488.233.488.52zm1.14-.694c0 .287-.219.52-.488.52s-.488-.233-.488-.52c0-.287.219-.52.488-.52s.488.233.488.52z"/><path fill="#f8d24e" style="fill:var(--color2,#f8d24e)" d="M50.61 27.705c0 .287-.219.52-.488.52s-.488-.233-.488-.52c0-.287.219-.52.488-.52s.488.233.488.52zm1.058-.694c0 .287-.219.52-.488.52s-.488-.233-.488-.52c0-.287.219-.52.488-.52s.488.233.488.52zm1.221-.78c0 .287-.219.52-.488.52s-.488-.233-.488-.52c0-.287.219-.52.488-.52s.488.233.488.52zm1.139-.694c0 .287-.219.52-.488.52s-.488-.233-.488-.52c0-.287.219-.52.488-.52s.488.233.488.52zm-1.384 2.081c0 .287-.219.52-.488.52s-.488-.233-.488-.52c0-.287.219-.52.488-.52s.488.233.488.52zm1.058-.693c0 .287-.219.52-.488.52s-.488-.233-.488-.52c0-.287.219-.52.488-.52s.488.233.488.52zm1.221-.781c0 .287-.219.52-.488.52s-.488-.233-.488-.52c0-.287.219-.52.488-.52s.488.233.488.52zm1.139-.694c0 .287-.219.52-.488.52s-.488-.233-.488-.52c0-.287.219-.52.488-.52s.488.233.488.52z"/><path fill="#f8d24e" style="fill:var(--color2,#f8d24e)" d="M54.516 25.364c0 .287-.219.52-.488.52s-.488-.233-.488-.52c0-.287.219-.52.488-.52s.488.233.488.52zm1.058-.694c0 .287-.219.52-.488.52s-.488-.233-.488-.52c0-.287.219-.52.488-.52s.488.233.488.52zm1.22-.781c0 .287-.219.52-.488.52s-.488-.233-.488-.52c0-.287.219-.52.488-.52s.488.233.488.52zm1.139-.693c0 .287-.219.52-.488.52s-.488-.233-.488-.52c0-.287.219-.52.488-.52s.488.233.488.52z"/></symbol><symbol id="dots_desk" viewBox="0 0 1200 384"><ellipse cx="447.193" cy="32.755" rx="5.858" ry="6.244" fill="#F8D24E"/><ellipse cx="459.886" cy="24.429" rx="5.858" ry="6.244" fill="#F8D24E"/><ellipse cx="474.532" cy="15.063" rx="5.858" ry="6.244" fill="#F8D24E"/><ellipse cx="488.202" cy="6.738" rx="5.858" ry="6.244" fill="#F8D24E"/><ellipse cx="428.641" cy="54.608" rx="5.858" ry="6.244" fill="#F8D24E"/><ellipse cx="441.335" cy="46.283" rx="5.858" ry="6.244" fill="#F8D24E"/><ellipse cx="455.98" cy="36.917" rx="5.858" ry="6.244" fill="#F8D24E"/><ellipse cx="469.65" cy="28.592" rx="5.858" ry="6.244" fill="#F8D24E"/><ellipse cx="400.325" cy="55.649" rx="5.858" ry="6.244" fill="#F8D24E"/><ellipse cx="413.019" cy="47.324" rx="5.858" ry="6.244" fill="#F8D24E"/><ellipse cx="427.665" cy="37.958" rx="5.858" ry="6.244" fill="#F8D24E"/><ellipse cx="441.335" cy="29.633" rx="5.858" ry="6.244" fill="#F8D24E"/><ellipse cx="384.703" cy="79.584" rx="5.858" ry="6.244" fill="#F8D24E"/><ellipse cx="397.396" cy="71.259" rx="5.858" ry="6.244" fill="#F8D24E"/><ellipse cx="412.042" cy="61.893" rx="5.858" ry="6.244" fill="#F8D24E"/><ellipse cx="425.712" cy="53.568" rx="5.858" ry="6.244" fill="#F8D24E"/><ellipse cx="372.986" cy="101.438" rx="5.858" ry="6.244" fill="#F8D24E"/><ellipse cx="385.679" cy="93.112" rx="5.858" ry="6.244" fill="#F8D24E"/><ellipse cx="400.325" cy="83.746" rx="5.858" ry="6.244" fill="#F8D24E"/><ellipse cx="413.995" cy="75.421" rx="5.858" ry="6.244" fill="#F8D24E"/><ellipse rx="5.858" ry="6.244" transform="translate(364.208 123.3) skewX(.011)" fill="#F8D24E"/><ellipse rx="5.858" ry="6.244" transform="translate(376.912 114.995) skewX(.011)" fill="#F8D24E"/><ellipse rx="5.858" ry="6.244" transform="translate(391.572 105.652) skewX(.011)" fill="#F8D24E"/><ellipse rx="5.858" ry="6.244" transform="translate(405.253 97.348) skewX(.011)" fill="#F8D24E"/><ellipse rx="5.858" ry="6.244" transform="translate(240.228 160.806) skewX(.011)" fill="#F8D24E"/><ellipse rx="5.858" ry="6.244" transform="translate(253.909 152.502) skewX(.011)" fill="#F8D24E"/><ellipse rx="5.858" ry="6.244" transform="translate(325.151 132.666) skewX(.011)" fill="#F8D24E"/><ellipse rx="5.858" ry="6.244" transform="translate(337.856 124.361) skewX(.011)" fill="#F8D24E"/><ellipse rx="5.858" ry="6.244" transform="translate(352.514 115.018) skewX(.011)" fill="#F8D24E"/><ellipse rx="5.858" ry="6.244" transform="translate(366.196 106.713) skewX(.011)" fill="#F8D24E"/><ellipse cx="241.171" cy="142.023" rx="5.858" ry="6.244" fill="#F8D24E"/><ellipse cx="254.841" cy="133.698" rx="5.858" ry="6.244" fill="#F8D24E"/><ellipse cx="273.393" cy="124.332" rx="5.858" ry="6.244" fill="#F8D24E"/><ellipse cx="286.086" cy="116.007" rx="5.858" ry="6.244" fill="#F8D24E"/><ellipse cx="300.732" cy="106.64" rx="5.858" ry="6.244" fill="#F8D24E"/><ellipse cx="314.402" cy="98.315" rx="5.858" ry="6.244" fill="#F8D24E"/><ellipse cx="298.779" cy="136.819" rx="5.858" ry="6.244" fill="#F8D24E"/><ellipse cx="311.473" cy="128.494" rx="5.858" ry="6.244" fill="#F8D24E"/><ellipse cx="326.119" cy="119.129" rx="5.858" ry="6.244" fill="#F8D24E"/><ellipse cx="339.789" cy="110.803" rx="5.858" ry="6.244" fill="#F8D24E"/><ellipse cx="300.732" cy="120.169" rx="5.858" ry="6.244" fill="#F8D24E"/><ellipse cx="313.426" cy="111.844" rx="5.858" ry="6.244" fill="#F8D24E"/><ellipse cx="328.072" cy="102.478" rx="5.858" ry="6.244" fill="#F8D24E"/><ellipse cx="341.741" cy="94.153" rx="5.858" ry="6.244" fill="#F8D24E"/><ellipse cx="247.03" cy="126.413" rx="5.858" ry="6.244" fill="#F8D24E"/><ellipse cx="259.723" cy="118.088" rx="5.858" ry="6.244" fill="#F8D24E"/><ellipse cx="274.37" cy="108.722" rx="5.858" ry="6.244" fill="#F8D24E"/><ellipse cx="288.039" cy="100.397" rx="5.858" ry="6.244" fill="#F8D24E"/><ellipse cx="5.858" cy="358.478" rx="5.858" ry="6.244" fill="#F8D24E"/><ellipse cx="18.551" cy="350.153" rx="5.858" ry="6.244" fill="#F8D24E"/><ellipse cx="33.198" cy="340.787" rx="5.858" ry="6.244" fill="#F8D24E"/><ellipse cx="46.867" cy="332.462" rx="5.858" ry="6.244" fill="#F8D24E"/><ellipse cx="80.065" cy="361.6" rx="5.858" ry="6.244" fill="#F8D24E"/><ellipse cx="92.758" cy="353.275" rx="5.858" ry="6.244" fill="#F8D24E"/><ellipse cx="107.404" cy="343.909" rx="5.858" ry="6.244" fill="#F8D24E"/><ellipse cx="121.074" cy="335.584" rx="5.858" ry="6.244" fill="#F8D24E"/><ellipse cx="110.334" cy="357.438" rx="5.858" ry="6.244" fill="#F8D24E"/><ellipse cx="123.027" cy="349.112" rx="5.858" ry="6.244" fill="#F8D24E"/><ellipse cx="137.673" cy="339.746" rx="5.858" ry="6.244" fill="#F8D24E"/><ellipse cx="151.343" cy="331.421" rx="5.858" ry="6.244" fill="#F8D24E"/><ellipse cx="165.989" cy="318.933" rx="5.858" ry="6.244" fill="#F8D24E"/><ellipse cx="134.744" cy="326.218" rx="5.858" ry="6.244" fill="#F8D24E"/><ellipse cx="1024.25" cy="376.672" rx="5.858" ry="6.239" fill="#F8D24E"/><ellipse cx="1036.94" cy="368.353" rx="5.858" ry="6.239" fill="#F8D24E"/><ellipse cx="1051.59" cy="358.995" rx="5.858" ry="6.239" fill="#F8D24E"/><ellipse cx="1065.26" cy="350.677" rx="5.858" ry="6.239" fill="#F8D24E"/><ellipse cx="1057.44" cy="372.513" rx="5.858" ry="6.239" fill="#F8D24E"/><ellipse cx="1070.14" cy="364.194" rx="5.858" ry="6.239" fill="#F8D24E"/><ellipse cx="1084.78" cy="354.836" rx="5.858" ry="6.239" fill="#F8D24E"/><ellipse cx="1098.45" cy="346.518" rx="5.858" ry="6.239" fill="#F8D24E"/><ellipse cx="1085.76" cy="369.393" rx="5.858" ry="6.239" fill="#F8D24E"/><ellipse cx="1098.45" cy="361.075" rx="5.858" ry="6.239" fill="#F8D24E"/><ellipse cx="1113.1" cy="351.717" rx="5.858" ry="6.239" fill="#F8D24E"/><ellipse cx="1126.77" cy="343.398" rx="5.858" ry="6.239" fill="#F8D24E"/><ellipse cx="1113.1" cy="365.234" rx="5.858" ry="6.239" fill="#F8D24E"/><ellipse cx="1125.79" cy="356.916" rx="5.858" ry="6.239" fill="#F8D24E"/><ellipse cx="1140.44" cy="347.557" rx="5.858" ry="6.239" fill="#F8D24E"/><ellipse cx="1154.11" cy="339.239" rx="5.858" ry="6.239" fill="#F8D24E"/><ellipse cx="1121.89" cy="376.672" rx="5.858" ry="6.239" fill="#F8D24E"/><ellipse cx="1134.58" cy="368.353" rx="5.858" ry="6.239" fill="#F8D24E"/><ellipse cx="1152.16" cy="377.712" rx="5.858" ry="6.239" fill="#F8D24E"/><ellipse cx="1149.23" cy="358.995" rx="5.858" ry="6.239" fill="#F8D24E"/><ellipse cx="1166.8" cy="368.353" rx="5.858" ry="6.239" fill="#F8D24E"/><ellipse cx="1180.47" cy="377.712" rx="5.858" ry="6.239" fill="#F8D24E"/><ellipse cx="1162.9" cy="350.677" rx="5.858" ry="6.239" fill="#F8D24E"/><ellipse cx="1180.47" cy="360.035" rx="5.858" ry="6.239" fill="#F8D24E"/><ellipse cx="1194.14" cy="369.393" rx="5.858" ry="6.239" fill="#F8D24E"/><ellipse cx="964.687" cy="308.045" rx="5.858" ry="6.239" fill="#F8D24E"/><ellipse cx="977.38" cy="299.727" rx="5.858" ry="6.239" fill="#F8D24E"/><ellipse cx="992.026" cy="290.369" rx="5.858" ry="6.239" fill="#F8D24E"/><ellipse cx="1005.7" cy="282.05" rx="5.858" ry="6.239" fill="#F8D24E"/><ellipse cx="940.276" cy="307.005" rx="5.858" ry="6.239" fill="#F8D24E"/><ellipse cx="952.97" cy="298.687" rx="5.858" ry="6.239" fill="#F8D24E"/><ellipse cx="967.616" cy="289.329" rx="5.858" ry="6.239" fill="#F8D24E"/><ellipse cx="981.285" cy="281.01" rx="5.858" ry="6.239" fill="#F8D24E"/><ellipse cx="994.956" cy="376.672" rx="5.858" ry="6.239" fill="#F8D24E"/><ellipse cx="1007.65" cy="368.353" rx="5.858" ry="6.239" fill="#F8D24E"/><ellipse cx="1022.29" cy="358.995" rx="5.858" ry="6.239" fill="#F8D24E"/><ellipse cx="1035.96" cy="350.677" rx="5.858" ry="6.239" fill="#F8D24E"/><ellipse cx="979.333" cy="370.433" rx="5.858" ry="6.239" fill="#F8D24E"/><ellipse cx="992.026" cy="362.115" rx="5.858" ry="6.239" fill="#F8D24E"/><ellipse cx="1006.67" cy="352.756" rx="5.858" ry="6.239" fill="#F8D24E"/><ellipse cx="1020.34" cy="344.438" rx="5.858" ry="6.239" fill="#F8D24E"/><ellipse cx="985.191" cy="348.597" rx="5.858" ry="6.239" fill="#F8D24E"/><ellipse cx="997.885" cy="340.279" rx="5.858" ry="6.239" fill="#F8D24E"/><ellipse cx="1012.53" cy="330.921" rx="5.858" ry="6.239" fill="#F8D24E"/><ellipse cx="1026.2" cy="322.602" rx="5.858" ry="6.239" fill="#F8D24E"/><ellipse rx="5.867" ry="6.23" transform="matrix(.98693 -.16112 .14249 .9898 680.19 303.798)" fill="#F8D24E"/><ellipse rx="5.867" ry="6.23" transform="matrix(.98693 -.16112 .14249 .9898 691.553 293.528)" fill="#F8D24E"/><ellipse rx="5.867" ry="6.23" transform="matrix(.98693 -.16112 .14249 .9898 704.699 281.914)" fill="#F8D24E"/><ellipse rx="5.867" ry="6.23" transform="matrix(.98693 -.16112 .14249 .9898 717.027 271.486)" fill="#F8D24E"/><ellipse cx="985.191" cy="312.204" rx="5.858" ry="6.239" fill="#F8D24E"/><ellipse cx="997.885" cy="303.886" rx="5.858" ry="6.239" fill="#F8D24E"/><ellipse cx="1012.53" cy="294.528" rx="5.858" ry="6.239" fill="#F8D24E"/><ellipse cx="1026.2" cy="286.209" rx="5.858" ry="6.239" fill="#F8D24E"/><ellipse cx="982.262" cy="331.96" rx="5.858" ry="6.239" fill="#F8D24E"/><ellipse cx="994.956" cy="323.642" rx="5.858" ry="6.239" fill="#F8D24E"/><ellipse cx="1009.6" cy="314.284" rx="5.858" ry="6.239" fill="#F8D24E"/><ellipse cx="1023.27" cy="305.965" rx="5.858" ry="6.239" fill="#F8D24E"/><ellipse cx="920.749" cy="301.806" rx="5.858" ry="6.239" fill="#F8D24E"/><ellipse cx="933.442" cy="293.488" rx="5.858" ry="6.239" fill="#F8D24E"/><ellipse cx="948.088" cy="284.13" rx="5.858" ry="6.239" fill="#F8D24E"/><path d="M947.112 308.045c3.235 0 5.858-2.793 5.858-6.239 0-3.445-2.623-6.239-5.858-6.239-3.236 0-5.859 2.794-5.859 6.239 0 3.446 2.623 6.239 5.859 6.239Z" fill="#F8D24E"/><ellipse cx="52.726" cy="360.559" rx="5.858" ry="6.244" fill="#F8D24E"/><ellipse cx="65.419" cy="352.234" rx="5.858" ry="6.244" fill="#F8D24E"/><ellipse cx="80.065" cy="342.868" rx="5.858" ry="6.244" fill="#F8D24E"/><ellipse cx="93.735" cy="334.543" rx="5.858" ry="6.244" fill="#F8D24E"/><ellipse cx="28.316" cy="359.519" rx="5.858" ry="6.244" fill="#F8D24E"/><ellipse cx="41.009" cy="351.193" rx="5.858" ry="6.244" fill="#F8D24E"/><ellipse cx="55.655" cy="341.828" rx="5.858" ry="6.244" fill="#F8D24E"/><ellipse cx="69.324" cy="333.503" rx="5.858" ry="6.244" fill="#F8D24E"/><ellipse cx="447.193" cy="56.69" rx="5.858" ry="6.244" fill="#F8D24E"/><ellipse cx="459.886" cy="48.364" rx="5.858" ry="6.244" fill="#F8D24E"/><ellipse cx="474.532" cy="38.998" rx="5.858" ry="6.244" fill="#F8D24E"/><ellipse cx="488.202" cy="30.673" rx="5.858" ry="6.244" fill="#F8D24E"/><ellipse cx="445.24" cy="99.356" rx="5.858" ry="6.244" fill="#F8D24E"/><ellipse cx="457.933" cy="91.031" rx="5.858" ry="6.244" fill="#F8D24E"/><ellipse cx="472.58" cy="81.665" rx="5.858" ry="6.244" fill="#F8D24E"/><ellipse cx="486.249" cy="73.34" rx="5.858" ry="6.244" fill="#F8D24E"/><ellipse cx="448.169" cy="77.502" rx="5.858" ry="6.244" fill="#F8D24E"/><ellipse cx="460.862" cy="69.177" rx="5.858" ry="6.244" fill="#F8D24E"/><ellipse cx="475.509" cy="59.812" rx="5.858" ry="6.244" fill="#F8D24E"/><ellipse cx="489.178" cy="51.486" rx="5.858" ry="6.244" fill="#F8D24E"/><ellipse cx="446.216" cy="120.169" rx="5.858" ry="6.244" fill="#F8D24E"/><ellipse cx="458.91" cy="111.844" rx="5.858" ry="6.244" fill="#F8D24E"/><ellipse cx="473.556" cy="102.478" rx="5.858" ry="6.244" fill="#F8D24E"/><ellipse cx="487.225" cy="94.153" rx="5.858" ry="6.244" fill="#F8D24E"/><ellipse cx="452.075" cy="134.738" rx="5.858" ry="6.244" fill="#F8D24E"/><ellipse cx="464.768" cy="126.413" rx="5.858" ry="6.244" fill="#F8D24E"/><ellipse cx="479.414" cy="117.047" rx="5.858" ry="6.244" fill="#F8D24E"/><ellipse cx="493.084" cy="108.722" rx="5.858" ry="6.244" fill="#F8D24E"/><ellipse cx="464.768" cy="146.185" rx="5.858" ry="6.244" fill="#F8D24E"/><ellipse cx="477.461" cy="137.86" rx="5.858" ry="6.244" fill="#F8D24E"/><ellipse cx="492.107" cy="128.494" rx="5.858" ry="6.244" fill="#F8D24E"/><ellipse cx="505.777" cy="120.169" rx="5.858" ry="6.244" fill="#F8D24E"/><ellipse cx="481.367" cy="155.551" rx="5.858" ry="6.244" fill="#F8D24E"/><ellipse cx="494.06" cy="147.226" rx="5.858" ry="6.244" fill="#F8D24E"/><ellipse cx="508.706" cy="137.86" rx="5.858" ry="6.244" fill="#F8D24E"/><ellipse cx="522.376" cy="129.535" rx="5.858" ry="6.244" fill="#F8D24E"/><ellipse cx="500.895" cy="157.633" rx="5.858" ry="6.244" fill="#F8D24E"/><ellipse cx="513.588" cy="149.307" rx="5.858" ry="6.244" fill="#F8D24E"/><ellipse cx="528.234" cy="139.942" rx="5.858" ry="6.244" fill="#F8D24E"/><ellipse cx="541.904" cy="131.616" rx="5.858" ry="6.244" fill="#F8D24E"/><ellipse cx="520.423" cy="161.795" rx="5.858" ry="6.244" fill="#F8D24E"/><ellipse cx="533.117" cy="153.47" rx="5.858" ry="6.244" fill="#F8D24E"/><ellipse cx="547.763" cy="144.104" rx="5.858" ry="6.244" fill="#F8D24E"/><ellipse cx="561.433" cy="135.779" rx="5.858" ry="6.244" fill="#F8D24E"/><ellipse cx="515.542" cy="181.568" rx="5.858" ry="6.244" fill="#F8D24E"/><ellipse cx="528.234" cy="173.242" rx="5.858" ry="6.244" fill="#F8D24E"/><ellipse cx="542.88" cy="163.876" rx="5.858" ry="6.244" fill="#F8D24E"/><ellipse cx="556.55" cy="155.551" rx="5.858" ry="6.244" fill="#F8D24E"/><ellipse cx="513.588" cy="200.299" rx="5.858" ry="6.244" fill="#F8D24E"/><ellipse cx="526.282" cy="191.974" rx="5.858" ry="6.244" fill="#F8D24E"/><ellipse cx="540.928" cy="182.608" rx="5.858" ry="6.244" fill="#F8D24E"/><ellipse cx="554.597" cy="174.283" rx="5.858" ry="6.244" fill="#F8D24E"/><ellipse cx="506.753" cy="224.234" rx="5.858" ry="6.244" fill="#F8D24E"/><ellipse cx="519.447" cy="215.909" rx="5.858" ry="6.244" fill="#F8D24E"/><ellipse cx="534.093" cy="206.543" rx="5.858" ry="6.244" fill="#F8D24E"/><ellipse cx="547.763" cy="198.218" rx="5.858" ry="6.244" fill="#F8D24E"/><ellipse cx="503.824" cy="245.047" rx="5.858" ry="6.244" fill="#F8D24E"/><ellipse cx="516.517" cy="236.722" rx="5.858" ry="6.244" fill="#F8D24E"/><ellipse cx="531.163" cy="227.356" rx="5.858" ry="6.244" fill="#F8D24E"/><ellipse cx="544.833" cy="219.031" rx="5.858" ry="6.244" fill="#F8D24E"/><ellipse cx="499.918" cy="266.901" rx="5.858" ry="6.244" fill="#F8D24E"/><ellipse cx="512.612" cy="258.576" rx="5.858" ry="6.244" fill="#F8D24E"/><ellipse cx="527.258" cy="249.21" rx="5.858" ry="6.244" fill="#F8D24E"/><ellipse cx="540.928" cy="240.885" rx="5.858" ry="6.244" fill="#F8D24E"/><ellipse cx="497.965" cy="284.592" rx="5.858" ry="6.244" fill="#F8D24E"/><ellipse cx="510.659" cy="276.267" rx="5.858" ry="6.244" fill="#F8D24E"/><ellipse cx="525.305" cy="266.901" rx="5.858" ry="6.244" fill="#F8D24E"/><ellipse cx="538.975" cy="258.576" rx="5.858" ry="6.244" fill="#F8D24E"/><ellipse cx="496.013" cy="303.324" rx="5.858" ry="6.244" fill="#F8D24E"/><ellipse cx="508.707" cy="294.998" rx="5.858" ry="6.244" fill="#F8D24E"/><ellipse cx="523.353" cy="285.633" rx="5.858" ry="6.244" fill="#F8D24E"/><ellipse cx="537.022" cy="277.307" rx="5.858" ry="6.244" fill="#F8D24E"/><ellipse cx="501.871" cy="318.933" rx="5.858" ry="6.244" fill="#F8D24E"/><ellipse cx="514.564" cy="310.608" rx="5.858" ry="6.244" fill="#F8D24E"/><ellipse cx="529.21" cy="301.242" rx="5.858" ry="6.244" fill="#F8D24E"/><ellipse cx="542.88" cy="292.917" rx="5.858" ry="6.244" fill="#F8D24E"/><ellipse cx="516.518" cy="327.259" rx="5.858" ry="6.244" fill="#F8D24E"/><ellipse cx="529.211" cy="318.933" rx="5.858" ry="6.244" fill="#F8D24E"/><ellipse cx="543.857" cy="309.568" rx="5.858" ry="6.244" fill="#F8D24E"/><ellipse cx="557.526" cy="301.242" rx="5.858" ry="6.244" fill="#F8D24E"/><ellipse cx="533.117" cy="332.462" rx="5.858" ry="6.244" fill="#F8D24E"/><ellipse cx="545.81" cy="324.137" rx="5.858" ry="6.244" fill="#F8D24E"/><ellipse cx="560.456" cy="314.771" rx="5.858" ry="6.244" fill="#F8D24E"/><ellipse cx="574.125" cy="306.446" rx="5.858" ry="6.244" fill="#F8D24E"/><ellipse cx="554.597" cy="333.503" rx="5.858" ry="6.244" fill="#F8D24E"/><ellipse cx="567.291" cy="325.177" rx="5.858" ry="6.244" fill="#F8D24E"/><ellipse cx="581.937" cy="315.811" rx="5.858" ry="6.244" fill="#F8D24E"/><ellipse cx="595.606" cy="307.486" rx="5.858" ry="6.244" fill="#F8D24E"/><ellipse cx="579.984" cy="333.503" rx="5.858" ry="6.244" fill="#F8D24E"/><ellipse cx="592.677" cy="325.177" rx="5.858" ry="6.244" fill="#F8D24E"/><ellipse cx="607.323" cy="315.811" rx="5.858" ry="6.244" fill="#F8D24E"/><ellipse cx="620.993" cy="307.486" rx="5.858" ry="6.244" fill="#F8D24E"/><ellipse cx="601.464" cy="332.462" rx="5.858" ry="6.244" fill="#F8D24E"/><ellipse cx="614.157" cy="324.137" rx="5.858" ry="6.244" fill="#F8D24E"/><ellipse cx="628.804" cy="314.771" rx="5.858" ry="6.244" fill="#F8D24E"/><ellipse cx="642.473" cy="306.446" rx="5.858" ry="6.244" fill="#F8D24E"/><ellipse cx="625.875" cy="331.421" rx="5.858" ry="6.244" fill="#F8D24E"/><ellipse cx="638.568" cy="323.096" rx="5.858" ry="6.244" fill="#F8D24E"/><ellipse cx="653.213" cy="313.73" rx="5.858" ry="6.244" fill="#F8D24E"/><ellipse cx="666.883" cy="305.405" rx="5.858" ry="6.244" fill="#F8D24E"/><ellipse cx="648.332" cy="304.364" rx="5.858" ry="6.244" fill="#F8D24E"/><ellipse cx="661.025" cy="296.039" rx="5.858" ry="6.244" fill="#F8D24E"/><ellipse cx="675.671" cy="286.673" rx="5.858" ry="6.244" fill="#F8D24E"/><ellipse cx="689.341" cy="278.348" rx="5.858" ry="6.244" fill="#F8D24E"/></symbol><symbol id="Logo" viewBox="0 0 30 32"><path fill="#f8d24e" style="fill:var(--color2,#f8d24e)" d="M15.226 17.082c1.415-3.784-1.515-5.856-3.457-7.217-.371-.278-.743-.538-1.043-.776-.537-.447-.933-1.037-1.141-1.699s-.217-1.37-.029-2.037a.394.394 0 0 0-.308-.491.407.407 0 0 0-.216.016 6.565 6.565 0 0 0-1.801 1.058c-.518.393-.937.898-1.226 1.476s-.44 1.213-.441 1.858c-.366.285-.69.618-.962.992a3.6 3.6 0 0 0-.709 2.324c-.595.538-1.038 1.22-1.286 1.977s-.292 1.566-.129 2.345a1.232 1.232 0 0 0-.106 2.06c.221.164.49.251.767.25h.026v2.152c0 .218.088.428.245.582s.369.241.591.241h.65l1.058 9.04a.83.83 0 0 0 .828.732h4.404c.206 0 .404-.075.557-.21s.251-.321.275-.522l1.058-9.04h.65c.222 0 .434-.087.591-.241s.245-.364.245-.582v-2.152h.026c.336 0 .658-.131.895-.366a1.242 1.242 0 0 0 0-1.773l-.011.004zm-9.531-6.866c.535 1.98 2.599 2.76 4.482 3.455a.41.41 0 0 0 .492-.051.403.403 0 0 0 .074-.483.401.401 0 0 0-.279-.197c-2.027-.758-3.939-1.464-4.084-3.488-.034-.556.072-1.112.308-1.619s.596-.947 1.047-1.284c.282-.232.586-.437.906-.615a4.604 4.604 0 0 0 0 .761c.043.58.204 1.146.473 1.663s.641.976 1.094 1.349c.308.26.691.527 1.114.813.976.692 2.087 1.464 2.792 2.511a3.859 3.859 0 0 1 .404 3.715h-1.641c-3.383 0-7.27-.922-8.039-3.506-.152-.532-.151-1.095.004-1.626s.457-1.009.873-1.379l-.019-.018zM8.74 22.693l1.24 1.222-1.24 1.222-1.24-1.23 1.24-1.215zm2.844 3.21-1.025 1.01-1.24-1.222 1.24-1.219 1.077 1.058-.052.373zM8.74 28.706 7.5 27.484l1.24-1.222 1.24 1.222-1.24 1.222zm-.568-3.008-1.24 1.222L5.9 25.903l-.045-.366 1.077-1.058 1.24 1.219zM6.36 27.484l-.249.245-.063-.556.312.311zm-.13 1.251.702-.692 1.363 1.354a.845.845 0 0 0 .026.081H6.316l-.085-.743zm4.322-.691.702.692-.085.732H9.108l1.444-1.424zm.817-.315-.249-.245.316-.311-.067.556zm.371-3.199-.62-.622.787-.776-.167 1.398zm-1.192-1.178-1.177-1.157h2.354l-1.177 1.157zm-3.62 0-1.177-1.157h2.354l-1.177 1.157zm4.01 7.817h-4.4c-.007-.001-.013-.004-.018-.008s-.008-.011-.008-.017l-.104-.878h4.663l-.1.878c-.001.007-.004.014-.01.018s-.012.007-.02.007h-.004zm3.405-12.751h-1.292a.406.406 0 0 0-.444.397c0 .056.012.111.035.161s.056.096.098.134a.403.403 0 0 0 .311.102h.46v2.152c-.001.007-.004.014-.01.018s-.012.007-.02.007H3.987c-.007 0-.014-.003-.02-.007s-.009-.011-.01-.018v-2.152h7.355a.404.404 0 0 0 .366-.397.393.393 0 0 0-.105-.268.413.413 0 0 0-.261-.129H3.144a.46.46 0 0 1-.501-.452.446.446 0 0 1 .15-.335.454.454 0 0 1 .351-.117h.843a.404.404 0 0 0 .366-.397.393.393 0 0 0-.105-.268.413.413 0 0 0-.261-.129h-.743a3.873 3.873 0 0 1 .81-3.185c.26.798.928 1.889 2.599 2.756 1.571.809 3.65 1.222 6.178 1.222h1.485a.46.46 0 0 1 .501.452.446.446 0 0 1-.15.335.454.454 0 0 1-.351.117h.026z"/><path fill="#f8d24e" style="fill:var(--color2,#f8d24e)" d="m16.964 29.152-.292.449.006.004.287-.453zm3.149.151.535-.012-.014-.62-.611.104.09.528zm.037 1.648.136.518.409-.108-.009-.422-.535.012zm-4.133.079.12-.522-.003-.001-.117.523zm-2.04-.911.347-.408-.001-.001-.346.409zm-.737-1.673.536.003v-.003h-.536zm.256-1.172-.481-.236v.001l.481.236zm1.643-1.402.19.501.002-.001-.192-.5zm5.262-.136.534.042.035-.452-.44-.109-.129.52zm-.131 1.679-.1.526.587.111.046-.596-.534-.042zm-1.428-.687c-.804 0-1.48.086-1.973.303a1.616 1.616 0 0 0-.651.489 1.26 1.26 0 0 0-.255.774h1.071c0-.063.015-.098.038-.127a.554.554 0 0 1 .228-.155c.288-.126.784-.212 1.542-.212v-1.071zm-2.879 1.566c0 .551.247 1.006.709 1.307l.585-.897a.435.435 0 0 1-.222-.409h-1.071zm.715 1.31c.438.277 1.015.381 1.662.381v-1.071c-.559 0-.899-.095-1.089-.215l-.573.905zm1.662.382a11.1 11.1 0 0 0 1.863-.154l-.179-1.056c-.545.092-1.106.139-1.684.139v1.071zm1.238-.671.037 1.648 1.071-.024-.037-1.648-1.071.024zm.435 1.118a7.964 7.964 0 0 1-2.029.244v1.071c.821 0 1.589-.092 2.302-.279l-.273-1.036zm-2.029.244c-.757 0-1.369-.059-1.847-.169l-.24 1.044c.582.134 1.281.197 2.087.197v-1.071zm-1.85-.17c-.511-.114-.88-.236-1.127-.356l-.47.963c.354.173.814.316 1.363.439l.234-1.045zm-1.126-.356a3.258 3.258 0 0 1-.684-.44l-.693.817c.267.227.571.421.907.585l.47-.963zm-.685-.441c-.364-.308-.55-.709-.548-1.262l-1.071-.005c-.004.842.301 1.556.927 2.086l.691-.818zm-.547-1.264c0-.36.071-.669.202-.936l-.962-.471c-.211.43-.311.903-.311 1.407h1.071zm.201-.936c.244-.495.674-.88 1.352-1.137l-.38-1.002c-.884.336-1.549.885-1.933 1.666l.961.473zm1.354-1.138c.713-.274 1.508-.414 2.392-.414v-1.071c-.999 0-1.926.159-2.776.485l.384 1zm2.392-.414c.902 0 1.751.1 2.549.298l.258-1.04a11.605 11.605 0 0 0-2.807-.33v1.071zm2.144-.263-.131 1.679 1.068.083.131-1.679-1.068-.083zm.503 1.194a8.256 8.256 0 0 0-1.528-.161v1.071c.377 0 .818.046 1.328.142l.2-1.052zm5.226.856-.003.536.544.003-.006-.544-.536.006zm-.23-.696-.364.393.005.004.36-.397zm-1.334.052.371.386.004-.004-.375-.383zm-.324.633-.529-.087-.102.619.627.003.003-.536zm3.938 2.856.324.427.193-.146.018-.241-.534-.04zm-1.156.429-.115-.523-.003.001.118.522zm-4.017-.146-.183.504.004.002.178-.505zm-.915-.487-.332.42.003.003.003.003.326-.425zm-.612-.769-.48.237.001.002.479-.24zm.627-3.248.356.4-.356-.4zm4.896-.581.214-.491-.005-.002-.209.493zm1.23 1.13-.482.234.001.003.48-.237zm.209.937.534.039.001-.019v-.019h-.536zm-.063.863-.003.536.501.002.036-.499-.534-.039zm-4.242-.021.003-.536-.699-.003.178.676.518-.137zm.607.748-.264.466.002.001.261-.468zm3.253-.183v-.536h-.107l-.099.041.206.494zm.283 0 .534.04.043-.576h-.577v.536zm-1.615-1.523c-.004-.387-.093-.803-.406-1.087l-.72.794c-.006-.006.006.001.021.047a.87.87 0 0 1 .033.257l1.071-.011zm-.401-1.082c-.281-.261-.65-.347-1.013-.347v1.071c.209 0 .272.05.284.061l.729-.785zm-1.013-.348c-.399 0-.77.125-1.06.409l.75.765c.058-.057.144-.103.31-.103v-1.071zm-1.056.406a1.63 1.63 0 0 0-.482.932l1.057.174a.558.558 0 0 1 .167-.333l-.742-.773zm.044 1.555 1.888.011.006-1.071-1.888-.011-.006 1.071zm3.618 1.893c-.117.089-.404.213-.948.333l.23 1.046c.565-.124 1.049-.286 1.364-.525l-.647-.854zm-.951.334a6.805 6.805 0 0 1-1.498.175v1.071c.566 0 1.145-.068 1.735-.201l-.237-1.045zm-1.498.175c-.505 0-.92-.024-1.252-.068l-.143 1.062c.394.053.86.078 1.395.078v-1.071zm-1.252-.069a4.855 4.855 0 0 1-.971-.236l-.357 1.01c.389.137.784.233 1.184.287l.143-1.062zm-.966-.234a2.862 2.862 0 0 1-.772-.408l-.652.85c.305.234.66.421 1.059.565l.365-1.007zm-.766-.403a1.708 1.708 0 0 1-.465-.588l-.958.479c.189.377.44.697.759.949l.665-.84zm-.464-.586c-.113-.228-.18-.521-.18-.898h-1.071c0 .502.09.966.291 1.372l.96-.475zm-.18-.898c0-.377.068-.71.196-1.006l-.983-.427a3.57 3.57 0 0 0-.285 1.432h1.071zm.196-1.005c.135-.311.3-.541.487-.708l-.712-.8a3.056 3.056 0 0 0-.758 1.081l.983.427zm.488-.708c.576-.513 1.454-.811 2.719-.811v-1.071c-1.42 0-2.592.334-3.432 1.083l.713.8zm2.719-.811c.568 0 1.103.108 1.611.324l.418-.986a5.144 5.144 0 0 0-2.029-.409v1.071zm1.606.321c.474.207.78.5.962.873l.963-.468c-.307-.631-.82-1.091-1.497-1.387l-.428.982zm.963.876c.1.203.154.433.154.699h1.071c0-.417-.086-.811-.265-1.173l-.96.474zm.156.661-.063.863 1.068.078.063-.863-1.068-.078zm.474.366-4.242-.021-.005 1.071 4.242.021.005-1.071zm-4.763.651c.125.475.431.835.861 1.078l.527-.933c-.212-.12-.31-.258-.352-.418l-1.036.273zm.863 1.079c.434.243.978.34 1.585.34v-1.071c-.509 0-.848-.084-1.062-.204l-.523.935zm1.585.34c.651 0 1.367-.176 2.136-.496l-.412-.989c-.689.287-1.26.414-1.724.414v1.071zm1.93-.455h.282v-1.071h-.282v1.071zm-.251-.575-.099 1.329 1.068.08.099-1.329-1.068-.08z"/></symbol><symbol id="arrow" viewBox="0 0 82 32"><path d="M81.414 17.414a2 2 0 0 0 0-2.828L68.686 1.858a2 2 0 1 0-2.828 2.828L77.172 16 65.858 27.314a2 2 0 1 0 2.828 2.828l12.728-12.728zM0 18h80v-4H0v4z"/></symbol><symbol id="semi_arrow" viewBox="0 0 22 32"><path d="M3.103.726a2.4 2.4 0 0 0 0 3.394L14.983 16 3.103 27.88a2.398 2.398 0 0 0 1.705 4.067 2.393 2.393 0 0 0 1.688-.674l13.577-13.577a2.4 2.4 0 0 0 0-3.394L6.496.725a2.4 2.4 0 0 0-3.394 0z"/></symbol><symbol id="facebook-yellow" viewBox="0 0 32 32"><path fill="#f8d24e" style="fill:var(--color2,#f8d24e)" d="M16 32c8.837 0 16-7.163 16-16S24.837 0 16 0 0 7.163 0 16s7.163 16 16 16z"/><path d="M20.446 15.982h-2.61v9.619h-3.955v-9.619H12v-3.38h1.881v-2.187c0-1.564.739-4.014 3.99-4.014l2.929.012v3.281h-2.125c-.349 0-.839.175-.839.921v1.989h2.955l-.346 3.377z"/></symbol><symbol id="github-yellow" viewBox="0 0 32 32"><path fill="#f8d24e" style="fill:var(--color2,#f8d24e)" d="M32 16c0 8.837-7.163 16-16 16S0 24.837 0 16 7.163 0 16 0s16 7.163 16 16z"/><path d="M16 6.588c-5.169 0-9.412 4.242-9.412 9.412 0 4.411 3.095 8.419 7.206 9.412v-3.114a2.307 2.307 0 0 1-1.197-.03c-.556-.164-1.008-.535-1.344-1.1-.214-.361-.593-.752-.988-.723l-.097-1.099c.855-.073 1.595.521 2.034 1.259.195.328.419.52.708.605.278.082.578.043.926-.08.088-.698.407-.959.648-1.326-2.451-.366-3.428-1.667-3.816-2.693-.514-1.363-.238-3.066.671-4.142.018-.021.05-.076.037-.114-.417-1.258.091-2.299.11-2.41.481.142.559-.143 2.089.786l.264.159c.111.066.076.028.186.02A8.031 8.031 0 0 1 16 11.132a8.016 8.016 0 0 1 2.002.285l.086.009c-.007-.001.023-.005.075-.036 1.911-1.157 1.842-.779 2.355-.946.019.111.519 1.169.107 2.411-.056.171 1.657 1.739.708 4.256-.388 1.027-1.365 2.328-3.816 2.693.314.479.692.734.69 1.722v3.887c4.111-.993 7.206-5 7.206-9.412 0-5.169-4.242-9.412-9.412-9.412z"/></symbol><symbol id="telegram-yellow" viewBox="0 0 32 32"><path fill="#f8d24e" style="fill:var(--color2,#f8d24e)" d="M32 16c0 8.837-7.163 16-16 16S0 24.837 0 16 7.163 0 16 0s16 7.163 16 16z"/><path d="m12.869 18.375-.318 4.169c.454 0 .651-.182.887-.401l2.13-1.9 4.415 3.017c.81.421 1.38.199 1.598-.695l2.898-12.672.001-.001c.257-1.117-.433-1.554-1.222-1.28L6.226 14.698c-1.162.421-1.145 1.026-.198 1.3l4.354 1.264 10.115-5.907c.476-.294.909-.131.553.163l-8.182 6.857z"/></symbol><symbol id="facebook" viewBox="0 0 32 32"><path d="M20.446 15.982h-2.61v9.619h-3.955v-9.619H12v-3.38h1.881v-2.187c0-1.564.739-4.014 3.99-4.014l2.929.012v3.281h-2.125c-.349 0-.839.175-.839.921v1.989h2.955l-.346 3.377z"/></symbol><symbol id="telegram" viewBox="0 0 32 32"><path d="m12.869 18.375-.318 4.169c.454 0 .651-.182.887-.401l2.13-1.9 4.415 3.017c.81.421 1.38.199 1.598-.695l2.898-12.672.001-.001c.257-1.117-.433-1.554-1.222-1.28L6.226 14.698c-1.162.421-1.145 1.026-.198 1.3l4.354 1.264 10.115-5.907c.476-.294.909-.131.553.163l-8.182 6.857z"/></symbol><symbol id="github" viewBox="0 0 32 32"><path d="M16 6.588c-5.169 0-9.412 4.242-9.412 9.412 0 4.411 3.095 8.419 7.206 9.412v-3.114a2.307 2.307 0 0 1-1.197-.03c-.556-.164-1.008-.535-1.344-1.1-.214-.361-.593-.752-.988-.723l-.097-1.099c.855-.073 1.595.521 2.034 1.259.195.328.419.52.708.605.278.082.578.043.926-.08.088-.698.407-.959.648-1.326-2.451-.366-3.428-1.667-3.816-2.693-.514-1.363-.238-3.066.671-4.142.018-.021.05-.076.037-.114-.417-1.258.091-2.299.11-2.41.481.142.559-.143 2.089.786l.264.159c.111.066.076.028.186.02A8.031 8.031 0 0 1 16 11.132a8.016 8.016 0 0 1 2.002.285l.086.009c-.007-.001.023-.005.075-.036 1.911-1.157 1.842-.779 2.355-.946.019.111.519 1.169.107 2.411-.056.171 1.657 1.739.708 4.256-.388 1.027-1.365 2.328-3.816 2.693.314.479.692.734.69 1.722v3.887c4.111-.993 7.206-5 7.206-9.412 0-5.169-4.242-9.412-9.412-9.412z"/></symbol><symbol id="ice" viewBox="0 0 32 32"><path d="M16.108.107c.08.214.241 1.252.241 1.573 0 .797-.295 1.54-.837 2.122-.449.482-.897.75-1.975 1.185-1.198.489-1.694.783-2.256 1.339-.569.569-.904 1.192-1.024 1.921-.134.797 0 1.359.408 1.68l.208.161-.328.208c-.663.435-1.868 1.459-2.075 1.774-.402.603-.361 1.165.094 1.392l.214.107-.241.228c-.361.341-.435.576-.382 1.192.033.408.02.629-.074.964-.114.435-.114.442.033.75.147.301.562.683.937.843.181.08.187.107.228.723.02.355.053 1.486.08 2.517.02 1.031.067 1.975.107 2.089a.79.79 0 0 0 .274.361c.388.268.656.556.83.89.194.382.408 1.319 1.058 4.559l.455 2.276.281.268c.536.529 1.56.77 3.247.77 1.694 0 2.705-.234 3.24-.763l.288-.274.415-2.109c.917-4.613.997-4.867 1.714-5.436.221-.181.435-.402.475-.502.047-.114.094-.991.127-2.316.027-1.178.067-2.343.094-2.591l.04-.449.435-.328c.549-.422.763-.803.763-1.393-.007-.696-.462-1.459-1.292-2.142l-.395-.321.194-.274c.81-1.118.301-2.664-1.205-3.695l-.455-.315.167-.174c.743-.797.864-3.173.241-4.827-.375-.984-1.232-2.055-2.283-2.845C17.659.857 16.239 0 16.112 0c-.027 0-.027.047-.007.107zm1.928 2.336c.355.348.783.823.951 1.064.997 1.392 1.252 3.14.649 4.425-.241.522-.964 1.299-1.633 1.761-1.024.71-3.327 1.901-4.934 2.557-2.584 1.051-4.084 1.252-4.258.562-.067-.261.127-.469.951-1.018.743-.509 4.077-2.986 4.137-3.086.02-.027-.321.127-.75.341-1.453.736-2.142.596-2.109-.428.02-.743.556-1.587 1.299-2.069.187-.12.77-.388 1.305-.603 1.761-.71 2.296-1.071 2.892-1.962.355-.529.743-1.506.77-1.921.007-.147.034-.261.054-.261s.321.288.676.636zm1.828 7.606c.489.274.997.743 1.218 1.111.388.663.187 1.325-.649 2.169-.91.924-2.464 1.808-4.171 2.37-1.573.515-3.079.756-5.235.83l-1.339.047.87.054c1.125.074 3.3.007 4.144-.127 2.243-.355 4.151-1.064 5.516-2.042.308-.221.629-.402.716-.402.221 0 1.185.924 1.379 1.312.107.221.134.382.114.596-.1.89-1.185 1.366-3.802 1.68-3.2.382-7.384.007-9.172-.817-.844-.388-.984-.609-.77-1.198.067-.187.08-.408.054-.723-.033-.415-.027-.469.12-.623.335-.361.897-.569 2.959-1.091a28.11 28.11 0 0 0 2.176-.656c1.138-.415 3.274-1.493 4.264-2.156.93-.616 1.064-.643 1.607-.335zm-8.89 8.194c1.406.408 2.651.529 4.967.482 1.741-.034 2.812-.141 4.358-.415.315-.053.589-.1.623-.1.074 0 .053 2.571-.027 3.247-.087.716-.281 1.272-.489 1.406-.214.141-1.285.288-2.718.368-2.939.161-5.958 0-6.895-.375-.509-.207-.562-.475-.569-2.959 0-1.654.013-1.881.1-1.848.053.02.348.107.649.194zm1.586 5.69c.482.06 1.004.121 1.165.141l.288.034-.254.281c-.328.355-.83 1.064-1.011 1.426-.207.415-.274.442-.582.274l-.261-.147-.147-.91c-.08-.495-.167-.971-.187-1.051-.06-.174-.12-.174.991-.047zm7.137-.074c0 .013-.033.187-.067.382-.04.201-.208 1.292-.375 2.43-.341 2.377-.569 3.495-.777 3.869-.288.502-.977.797-2.095.89-.435.034-1.747-.053-1.821-.12-.053-.06 1.098-1.486 1.279-1.58.167-.094.214-.08.783.214.663.348.997.402.997.181s-.174-.435-.602-.73c-.395-.281-.536-.442-.536-.629 0-.053.194-.355.428-.669s.576-.817.75-1.118l.328-.542.301.04c.609.087.77.08.75-.053-.013-.067-.127-.261-.254-.422-.127-.167-.228-.335-.228-.368 0-.127.623-1.299.823-1.546.174-.214.315-.321.315-.228zm-4.184.536c.335.221 1.593 1.312 1.674 1.446.034.06-1.259 2.082-1.513 2.37-.027.034-.167-.033-.308-.141a22.133 22.133 0 0 0-1.165-.803l-.904-.596.542-.917c.964-1.613.944-1.587 1.151-1.587.107 0 .341.1.522.228zm2.537.241c-.234.288-.428.469-.509.469-.174 0-.455-.154-.93-.502l-.395-.288.79-.047c.428-.02.844-.047.917-.06.536-.087.536-.08.127.428zm-5.061 3.22c.616.241 1.66.81 1.962 1.064.214.174.214.187.127.402a6.675 6.675 0 0 1-.415.716c-.174.268-.375.602-.449.743-.214.415-.281.449-.723.328-.475-.141-.73-.382-.864-.817-.181-.609-.469-2.33-.435-2.598.013-.1.295-.04.797.161z"/></symbol><symbol id="weight" viewBox="0 0 32 32"><path d="M14.177.547c-3.974.589-7.247 2.796-8.451 5.685-.384.913-.488 1.473-.488 2.573.007.812.037 1.114.162 1.552.259.863.443 1.301.827 1.919l.355.575-.399.489c-3.154 3.924-3.502 9.444-.872 13.793.982 1.632 2.585 3.234 4.152 4.169l.465.273 12.743-.108.303-.165c1.056-.597 2.549-1.926 3.383-3.004a12.61 12.61 0 0 0 2.423-5.621c.118-.74.118-2.932-.007-3.63-.377-2.149-1.182-3.989-2.453-5.621-.244-.309-.436-.568-.436-.589 0-.014.133-.237.288-.489a7.762 7.762 0 0 0 .864-1.962c.199-.719.199-2.516 0-3.234-.709-2.552-2.837-4.679-5.843-5.851C20.351.97 18.91.618 17.98.503c-.864-.101-2.999-.079-3.804.043zm4.499 1.171c3.945.769 6.833 3.184 7.365 6.16.118.668.044 1.804-.155 2.437-.199.618-.569 1.344-1.005 1.962-.177.252-.325.539-.325.633s.155.338.377.582c1.847 2.048 2.822 4.614 2.822 7.389-.007 3.155-1.219 5.922-3.553 8.093-.399.374-.968.841-1.271 1.042l-.554.374-12.211.05-.473-.302c-1.714-1.114-3.258-2.954-4.115-4.909-1.079-2.472-1.189-5.34-.31-7.913.465-1.337 1.086-2.429 2.031-3.579.384-.46.561-.733.561-.863 0-.108-.192-.46-.443-.827-.886-1.287-1.248-2.717-1.034-4.068.222-1.366.842-2.487 1.987-3.601 1.492-1.445 3.575-2.401 6.02-2.76 1.012-.151 3.25-.093 4.285.101z"/><path d="M14.51 2.983c-3.029.496-5.4 2.178-6.176 4.384-.177.496-.207.69-.207 1.402s.03.906.207 1.402c.111.316.318.755.458.977.384.618.554.64 1.315.18a11.949 11.949 0 0 1 3.804-1.488c.916-.187 2.674-.259 3.671-.144 1.559.18 3.25.74 4.602 1.538.384.223.776.41.872.41.561 0 1.278-1.617 1.278-2.875 0-2.796-2.674-5.189-6.464-5.786-.805-.129-2.585-.129-3.361 0zm3.656 1.15c1.271.273 2.438.791 3.317 1.473 1.182.913 1.817 2.185 1.714 3.414-.037.489-.222 1.15-.332 1.222-.029.014-.443-.158-.916-.388a14.721 14.721 0 0 0-3.228-1.1c-.687-.144-.975-.165-2.512-.158-1.514 0-1.832.022-2.489.158a13.254 13.254 0 0 0-3.117 1.064c-1.101.525-1.042.532-1.241-.115-.258-.841-.096-1.955.406-2.796.266-.446.997-1.186 1.529-1.553 1.012-.697 1.899-1.013 3.804-1.358.391-.072 2.563.029 3.066.137zm-1.204 9.272c-.207.259-.207.503.007.712.14.137.281.173.79.208.99.072 1.935.359 2.785.848.606.359 1.529 1.229 1.943 1.854.613.898 1.034 2.185 1.034 3.134 0 .331.029.431.185.575.236.237.547.237.776 0 .163-.165.17-.208.125-.913-.207-3.479-3.184-6.382-6.744-6.577l-.739-.043-.163.201z"/></symbol><symbol id="cow" viewBox="0 0 31 32"><path d="M6.002.778c-.254.219-.979 1.733-1.24 2.559-.31 1.024-.416 1.791-.373 2.852.056 1.514.437 2.661 1.275 3.861.218.314.394.585.394.607 0 .015-.134.029-.303.029-.726 0-2.085.241-3.128.556C.972 11.739 0 12.609 0 13.582c0 .344.31.929.641 1.228.641.578 2.043 1.126 3.55 1.389.521.095 2.071.256 2.416.263.063 0 .085.336.085 1.44 0 .951.035 1.689.106 2.142.254 1.623 1.043 3.341 2.085 4.555l.359.417-.24.387c-.352.548-.486.965-.528 1.587-.106 1.492.824 2.815 2.62 3.744 3.423 1.777 8.742 1.082 10.735-1.404.972-1.214 1.085-2.603.317-3.861l-.239-.388.43-.519c.803-.965 1.324-1.93 1.719-3.151.331-1.038.458-2.04.458-3.627 0-.724.021-1.323.056-1.323.324-.007 1.881-.175 2.374-.263 1.515-.263 2.888-.804 3.55-1.389.331-.3.641-.885.641-1.228 0-1.082-1.099-1.96-3.142-2.486-.669-.175-1.93-.387-2.543-.424l-.289-.022.317-.439c.394-.534.888-1.572 1.078-2.252.535-1.967.204-4.255-.944-6.442-.479-.907-.81-1.119-1.198-.76-.148.139-.211.329-.352 1.016-.437 2.186-1.247 3.919-2.43 5.199l-.521.57H9.967l-.465-.505c-1.155-1.272-1.993-3.071-2.43-5.264-.141-.687-.204-.877-.352-1.016-.232-.212-.458-.205-.718.022zm.901 4.336c.373.819.838 1.587 1.388 2.296l.437.563-.458.344a4.6 4.6 0 0 0-1.141 1.331l-.134.241-.338-.461c-1.155-1.594-1.444-3.546-.831-5.571.296-.98.289-.972.556-.124.127.409.366 1.031.521 1.382zm18.336-1.543a7.22 7.22 0 0 1 .402 2.464c0 1.331-.352 2.457-1.092 3.466l-.331.453-.247-.417a4.38 4.38 0 0 0-1.233-1.353c-.19-.124-.338-.249-.338-.263 0-.022.134-.19.303-.373.782-.87 1.62-2.435 2.036-3.78.127-.417.254-.76.275-.76s.127.256.225.563zM21.64 8.916c.782.329 1.529 1.272 1.648 2.069.063.439.211.717.402.76.084.015.669.066 1.296.11 2.226.146 3.98.621 4.727 1.272.345.307.31.563-.106.877-.831.629-2.627 1.104-4.459 1.184-1.212.051-1.465.088-1.627.256-.12.124-.134.256-.134 1.579 0 1.791-.092 2.822-.317 3.656-.317 1.133-.944 2.34-1.677 3.195l-.303.351-.627-.373a7.77 7.77 0 0 0-2.325-.943c-2.67-.636-5.621-.249-7.608 1.002l-.458.293-.289-.344c-.394-.461-1.014-1.448-1.261-2.003-.542-1.258-.704-2.281-.704-4.533 0-2.186.113-2.025-1.507-2.113-2.071-.11-3.649-.483-4.642-1.111-.733-.468-.613-.885.409-1.375.979-.475 2.325-.76 4.191-.877 1.451-.095 1.486-.117 1.62-.819.197-1.06.979-1.938 1.965-2.215.246-.073 1.627-.088 5.854-.08l5.53.015.401.168zm-3.959 15.135c1.726.424 3.015 1.214 3.571 2.193.134.227.19.461.218.819.028.446.007.556-.162.921-.782 1.66-3.656 2.756-6.579 2.508-3.515-.293-5.826-2.252-4.917-4.175.493-1.038 2.163-2.033 3.924-2.325.289-.044.578-.095.634-.11s.69-.015 1.409 0c.979.022 1.451.066 1.902.168z"/><path d="M10.693 12.579c-.437.146-.733.336-1.127.731-.345.329-.373.717-.085.95.268.219.521.19.845-.095.409-.358.726-.505 1.12-.505.394-.007.697.132 1.12.505.324.285.578.314.845.095.141-.117.183-.212.183-.431 0-.227-.049-.329-.296-.578-.697-.702-1.733-.972-2.606-.673zm8.213-.008c-.451.168-1.029.548-1.261.833-.225.278-.232.592 0 .826.232.249.514.234.852-.044.831-.687 1.451-.709 2.219-.073.197.168.423.3.493.3.345 0 .627-.307.627-.673 0-.234-.585-.775-1.113-1.031-.585-.285-1.282-.336-1.817-.139zm-7.192 13.535c-.204.197-.275.483-.169.709.078.183.197.256.683.388.218.058.31.132.387.314.099.241.106.241.648.263l.542.022v-.205c-.007-.293-.169-.717-.38-1.009-.247-.336-.676-.556-1.162-.6-.331-.029-.416-.015-.549.117zm6.728-.052c-.352.095-.859.57-1 .943a2.54 2.54 0 0 0-.134.665c-.014.314.014.388.183.541.416.366.965.08.965-.504 0-.285.211-.483.585-.556.394-.073.535-.234.542-.607 0-.49-.437-.68-1.141-.483z"/></symbol><symbol id="cow-yellow" viewBox="0 0 32 32"><path fill="#f8d24e" style="fill:var(--color1,#f8d24e)" d="M16 0c8.837 0 16 7.163 16 16s-7.163 16-16 16S0 24.837 0 16 7.163 0 16 0z"/><path fill="#131313" style="fill:var(--color2,#131313)" d="M8.921 4.618c-.188.162-.725 1.282-.917 1.894-.229.758-.308 1.326-.276 2.11.042 1.12.323 1.969.944 2.857.162.233.292.433.292.449 0 .011-.099.022-.224.022-.537 0-1.543.179-2.314.411-1.225.368-1.944 1.012-1.944 1.731 0 .254.229.687.474.909.474.427 1.512.833 2.627 1.028.386.07 1.532.189 1.788.195.047 0 .063.249.063 1.066 0 .703.026 1.25.078 1.585.188 1.201.772 2.473 1.543 3.371l.266.308-.177.287c-.261.406-.36.714-.391 1.174-.078 1.104.61 2.083 1.939 2.77 2.533 1.315 6.469.801 7.944-1.039.719-.898.803-1.926.235-2.857l-.177-.287.318-.384a6.671 6.671 0 0 0 1.272-2.332c.245-.768.339-1.51.339-2.684 0-.536.016-.979.042-.979a22.66 22.66 0 0 0 1.757-.195c1.121-.195 2.137-.595 2.627-1.028.245-.222.474-.655.474-.909 0-.801-.813-1.45-2.325-1.84-.495-.13-1.428-.287-1.882-.314l-.214-.016.235-.325c.292-.395.657-1.163.798-1.667.396-1.455.151-3.149-.698-4.767-.355-.671-.599-.828-.886-.563-.11.103-.156.243-.261.752-.323 1.618-.923 2.9-1.798 3.847l-.386.422H11.86l-.344-.373c-.855-.941-1.475-2.272-1.798-3.896-.104-.509-.151-.649-.261-.752-.172-.157-.339-.152-.532.016zm.667 3.209a8.56 8.56 0 0 0 1.027 1.699l.323.417-.339.254c-.318.243-.615.59-.844.985l-.099.179-.25-.341c-.855-1.18-1.069-2.624-.615-4.123.219-.725.214-.72.412-.092.094.303.271.763.386 1.023zm13.569-1.142a5.34 5.34 0 0 1 .297 1.823c0 .985-.261 1.818-.808 2.565l-.245.335-.182-.308a3.246 3.246 0 0 0-.912-1.001 1.26 1.26 0 0 1-.25-.195c0-.016.099-.141.224-.276.579-.644 1.199-1.802 1.506-2.797.094-.308.188-.563.203-.563s.094.189.167.417zm-2.664 3.955c.579.244 1.131.941 1.22 1.531.047.325.156.53.297.563.063.011.495.049.959.081 1.647.108 2.945.46 3.498.941.255.227.229.417-.078.649-.615.465-1.944.817-3.3.876-.897.038-1.084.065-1.204.189-.089.092-.099.189-.099 1.169 0 1.326-.068 2.088-.235 2.705-.235.839-.698 1.731-1.241 2.364l-.224.26-.464-.276a5.76 5.76 0 0 0-1.72-.698c-1.976-.471-4.16-.184-5.63.741l-.339.216-.214-.254a7.84 7.84 0 0 1-.933-1.483c-.401-.931-.521-1.688-.521-3.355 0-1.618.083-1.499-1.116-1.564-1.532-.081-2.7-.357-3.435-.822-.542-.346-.454-.655.302-1.017.725-.352 1.72-.563 3.102-.649 1.074-.07 1.1-.087 1.199-.606.146-.785.725-1.434 1.454-1.639.182-.054 1.204-.065 4.332-.06l4.092.011.297.124zm-2.929 11.2c1.277.314 2.231.898 2.643 1.623.099.168.141.341.162.606.021.33.005.411-.12.682-.579 1.228-2.705 2.04-4.869 1.856-2.601-.216-4.311-1.666-3.638-3.089.365-.768 1.6-1.504 2.903-1.721.214-.032.427-.07.469-.081s.511-.011 1.042 0c.725.016 1.074.049 1.407.124z"/><path fill="#131313" style="fill:var(--color2,#131313)" d="M12.393 13.351c-.323.108-.542.249-.834.541-.255.243-.276.53-.063.703.198.162.386.141.625-.07.302-.265.537-.373.829-.373.292-.005.516.097.829.373.24.211.427.233.626.07.104-.087.136-.157.136-.319 0-.168-.036-.243-.219-.427-.516-.519-1.282-.72-1.929-.498zM18.471 13.346c-.334.124-.761.406-.933.617-.167.206-.172.438 0 .611.172.184.381.173.631-.032.615-.509 1.074-.525 1.642-.054.146.124.313.222.365.222.255 0 .464-.227.464-.498 0-.173-.433-.573-.824-.763-.433-.211-.949-.249-1.345-.103zM13.149 23.361c-.151.146-.203.357-.125.525.057.135.146.189.506.287.162.043.229.097.287.233.073.179.078.179.48.195l.401.016v-.151c-.005-.216-.125-.53-.281-.747-.182-.249-.5-.411-.86-.444-.245-.022-.308-.011-.407.087zM18.127 23.323c-.261.07-.636.422-.74.698a1.852 1.852 0 0 0-.099.492c-.01.233.01.287.136.4.308.271.714.06.714-.373 0-.211.156-.357.433-.411.292-.054.396-.173.401-.449 0-.363-.323-.503-.844-.357z"/></symbol><symbol id="ice-yellow" viewBox="0 0 32 32"><path fill="#f8d24e" style="fill:var(--color1,#f8d24e)" d="M16 0c8.837 0 16 7.163 16 16s-7.163 16-16 16S0 24.837 0 16 7.163 0 16 0z"/><path style="fill:var(--color3,#000)" d="M16.078 4.557c.058.154.174.901.174 1.133 0 .574-.212 1.109-.602 1.528-.323.347-.646.54-1.422.853-.863.352-1.219.564-1.624.964-.41.41-.651.858-.737 1.383-.096.574 0 .978.294 1.21l.149.116-.236.149c-.477.313-1.345 1.051-1.494 1.277-.289.434-.26.839.067 1.003l.154.077-.174.164c-.26.246-.313.415-.275.858.024.294.014.453-.053.694-.082.313-.082.318.024.54.106.217.405.492.675.607.13.058.135.077.164.521.014.256.039 1.07.058 1.812.014.742.048 1.422.077 1.504a.57.57 0 0 0 .198.26c.28.193.472.4.598.641.14.275.294.95.762 3.282l.328 1.639.203.193c.386.381 1.123.554 2.338.554 1.219 0 1.947-.169 2.333-.549l.207-.198.299-1.518c.66-3.321.718-3.504 1.234-3.914.159-.13.313-.289.342-.362.034-.082.068-.713.092-1.668.019-.848.048-1.687.068-1.865l.029-.323.313-.236c.395-.304.549-.578.549-1.003-.005-.501-.333-1.051-.93-1.542l-.284-.231.14-.198c.583-.805.217-1.918-.868-2.661l-.328-.227.12-.125c.535-.574.622-2.285.174-3.475-.27-.709-.887-1.48-1.644-2.049-.371-.28-1.393-.897-1.485-.897-.019 0-.019.034-.005.077zm1.388 1.682c.256.251.564.593.684.766.718 1.003.901 2.261.468 3.186-.174.376-.694.935-1.176 1.268-.737.511-2.396 1.369-3.552 1.841-1.861.757-2.94.901-3.066.405-.048-.188.092-.337.684-.733.535-.366 2.935-2.15 2.979-2.222.014-.019-.231.092-.54.246-1.046.53-1.542.429-1.518-.308.014-.535.4-1.142.935-1.489.135-.087.554-.28.94-.434 1.268-.511 1.653-.771 2.082-1.412.256-.381.535-1.085.554-1.383.005-.106.024-.188.039-.188s.231.207.487.458zm1.316 5.476c.352.198.718.535.877.8.28.477.135.954-.468 1.562-.656.665-1.774 1.301-3.003 1.706-1.133.371-2.217.545-3.769.598l-.964.034.627.039c.81.053 2.376.005 2.984-.092 1.615-.256 2.988-.766 3.972-1.47.222-.159.453-.289.516-.289.159 0 .853.665.993.945a.735.735 0 0 1 .082.429c-.072.641-.853.983-2.738 1.21-2.304.275-5.317.005-6.604-.588-.607-.28-.709-.439-.554-.863.048-.135.058-.294.039-.521-.024-.299-.019-.337.087-.448.241-.26.646-.41 2.13-.786a20.534 20.534 0 0 0 1.567-.472c.819-.299 2.357-1.075 3.07-1.552.67-.443.766-.463 1.157-.241zm-6.401 5.9c1.012.294 1.909.381 3.576.347 1.253-.024 2.024-.101 3.138-.299.227-.039.424-.072.448-.072.053 0 .039 1.851-.019 2.338-.063.516-.202.916-.352 1.012-.154.101-.925.207-1.957.265-2.116.116-4.29 0-4.965-.27-.366-.149-.405-.342-.41-2.13 0-1.191.01-1.355.072-1.33.039.014.251.077.468.14zm1.142 4.097c.347.043.723.087.839.101l.207.024-.183.202c-.236.256-.598.766-.728 1.027-.149.299-.198.318-.419.198l-.188-.106-.106-.656c-.058-.357-.12-.699-.135-.757-.043-.125-.087-.125.713-.034zm5.139-.053c0 .01-.024.135-.048.275-.029.145-.149.93-.27 1.75-.246 1.711-.41 2.516-.559 2.786-.207.361-.704.574-1.509.641-.313.024-1.258-.039-1.311-.087-.039-.043.791-1.07.921-1.138.12-.068.154-.058.564.154.477.251.718.289.718.13s-.125-.313-.434-.525c-.284-.202-.386-.318-.386-.453 0-.039.14-.255.308-.482s.415-.588.54-.805l.236-.39.217.029c.439.063.554.058.54-.039a1.175 1.175 0 0 0-.183-.304c-.092-.12-.164-.241-.164-.265 0-.092.448-.935.593-1.113.125-.154.227-.231.227-.164zm-3.013.385c.241.159 1.147.945 1.205 1.041.024.043-.906 1.499-1.089 1.706-.019.024-.12-.024-.222-.101a15.48 15.48 0 0 0-.839-.578l-.651-.429.39-.66c.694-1.162.68-1.142.829-1.142.077 0 .246.072.376.164zm1.827.174c-.169.207-.308.337-.366.337-.125 0-.328-.111-.67-.362l-.284-.207.569-.034c.308-.014.607-.034.66-.043.386-.063.386-.058.092.308zm-3.644 2.318c.443.174 1.195.583 1.412.766.154.125.154.135.092.289a4.977 4.977 0 0 1-.299.516c-.125.193-.27.434-.323.535-.154.299-.202.323-.521.236-.342-.101-.525-.275-.622-.588-.13-.439-.337-1.677-.313-1.87.01-.072.212-.029.574.116z"/></symbol><symbol id="weight-yellow" viewBox="0 0 32 32"><path fill="#f8d24e" style="fill:var(--color1,#f8d24e)" d="M16 0c8.837 0 16 7.163 16 16s-7.163 16-16 16S0 24.837 0 16 7.163 0 16 0z"/><path fill="#131313" style="fill:var(--color2,#131313)" d="M14.688 4.874c-2.861.424-5.218 2.013-6.085 4.093-.277.657-.351 1.061-.351 1.853.005.585.027.802.117 1.118.186.621.319.937.596 1.382l.255.414-.287.352c-2.271 2.825-2.521 6.8-.628 9.931.707 1.175 1.862 2.329 2.989 3.001l.335.197 9.175-.078.218-.119c.761-.43 1.835-1.387 2.436-2.163a9.082 9.082 0 0 0 1.745-4.047c.085-.533.085-2.111-.005-2.613-.271-1.547-.851-2.872-1.766-4.047a4.477 4.477 0 0 1-.314-.424c0-.01.096-.171.207-.352a5.56 5.56 0 0 0 .622-1.413c.144-.518.144-1.811 0-2.329-.511-1.837-2.042-3.369-4.207-4.212-.606-.238-1.644-.492-2.314-.574-.622-.072-2.159-.057-2.739.031zm3.239.843c2.84.554 4.92 2.292 5.303 4.435.085.481.032 1.299-.112 1.754-.144.445-.41.968-.723 1.413-.128.181-.234.388-.234.455s.112.243.271.419c1.33 1.475 2.032 3.322 2.032 5.32-.005 2.272-.878 4.264-2.558 5.827a8.892 8.892 0 0 1-.915.75l-.399.269-8.792.036-.34-.217c-1.234-.802-2.346-2.127-2.963-3.535a7.942 7.942 0 0 1-.223-5.698c.335-.963.782-1.749 1.463-2.577.277-.331.404-.528.404-.621 0-.078-.138-.331-.319-.595-.638-.926-.899-1.956-.745-2.929.16-.983.606-1.791 1.431-2.593 1.074-1.04 2.574-1.728 4.335-1.987.729-.109 2.34-.067 3.085.072z"/><path fill="#131313" style="fill:var(--color2,#131313)" d="M14.927 6.628c-2.181.357-3.888 1.568-4.446 3.157-.128.357-.149.497-.149 1.009s.021.652.149 1.009c.08.228.229.543.33.704.277.445.399.461.947.129a8.61 8.61 0 0 1 2.739-1.071c.66-.135 1.925-.186 2.643-.104a8.765 8.765 0 0 1 3.314 1.107c.277.16.559.295.628.295.404 0 .92-1.164.92-2.07 0-2.013-1.925-3.736-4.654-4.166-.58-.093-1.862-.093-2.42 0zm2.633.828c.915.197 1.755.569 2.388 1.061.851.657 1.308 1.573 1.234 2.458-.027.352-.16.828-.239.88-.021.01-.319-.114-.66-.279a10.537 10.537 0 0 0-2.324-.792c-.495-.104-.702-.119-1.808-.114-1.09 0-1.319.016-1.792.114a9.56 9.56 0 0 0-2.244.766c-.793.378-.75.383-.894-.083-.186-.605-.069-1.408.293-2.013.191-.321.718-.854 1.101-1.118.729-.502 1.367-.73 2.739-.978.282-.052 1.846.021 2.207.098zM16.693 14.132c-.149.186-.149.362.005.512.101.098.202.124.569.15a4.683 4.683 0 0 1 2.005.611c.436.259 1.101.885 1.399 1.335.441.647.745 1.573.745 2.256 0 .238.021.311.133.414.17.171.394.171.558 0 .117-.119.122-.15.09-.657-.149-2.505-2.292-4.595-4.856-4.735l-.532-.031-.117.145z"/></symbol><symbol id="icon-arrow-right" viewBox="0 0 32 32"><path d="M10.587 3.272c-.361.362-.585.861-.585 1.413s.223 1.051.585 1.413l9.899 9.901-9.899 9.901a2 2 0 0 0 2.828 2.825l-.001.001 11.315-11.315c.361-.362.585-.861.585-1.413s-.224-1.052-.585-1.413L13.414 3.27c-.362-.361-.861-.585-1.413-.585s-1.052.224-1.413.585z"/></symbol></defs></svg>